<svg width="137" height="40" viewBox="0 0 137 40" fill="none" xmlns="http://www.w3.org/2000/svg">
<path d="M11.0485 11.9722C9.5584 12.1503 8.00437 11.6677 6.86091 10.5242C5.71749 9.38081 5.23484 7.82683 5.41297 6.33681C6.90302 6.15864 8.45705 6.64128 9.60051 7.78474C10.7439 8.92816 11.2266 10.4821 11.0485 11.9722Z" fill="#00AE70"/>
<path d="M17.7111 16.2488C19.2011 16.427 20.7552 15.9444 21.8986 14.8009C23.042 13.6575 23.5247 12.1036 23.3466 10.6136C21.8565 10.4354 20.3025 10.9181 19.159 12.0615C18.0156 13.2049 17.533 14.7589 17.7111 16.2488Z" fill="#00AE70"/>
<path d="M6.86091 26.0804C8.00437 27.2239 9.5584 27.7065 11.0485 27.5283C11.2266 26.0384 10.7439 24.4844 9.60051 23.341C8.45705 22.1976 6.90301 21.7149 5.41295 21.8931C5.23486 23.3831 5.71751 24.937 6.86091 26.0804Z" fill="#00AE70"/>
<path fill-rule="evenodd" clip-rule="evenodd" d="M5.93045 0C2.65518 0 4.83089e-05 2.65512 4.83089e-05 5.9304V8.14541C4.83089e-05 8.16324 -6.03861e-05 8.18105 4.83089e-05 8.19884V28.5496C4.83089e-05 31.8248 2.65518 34.48 5.93045 34.48H12.7733V40H15.5105V34.48H22.3531C25.6284 34.48 28.2835 31.8248 28.2835 28.5496V16.3898C28.2836 16.374 28.2836 16.3583 28.2836 16.3425L28.2835 5.9304C28.2835 2.65513 25.6284 0 22.3531 0H5.93045ZM2.73716 28.5496V14.4561C3.63339 15.3172 4.70693 16.008 5.89194 16.479C7.88152 17.2699 9.62724 18.1942 10.8621 19.4138C12.0247 20.5621 12.7593 21.9928 12.7733 23.9573V24.0724L12.7731 24.0979L12.7733 24.0979V31.7429H5.93045C4.16684 31.7429 2.73716 30.3132 2.73716 28.5496ZM6.90294 13.9355C9.00315 14.7703 11.1489 15.8552 12.7733 17.4545V2.73711H5.93045C4.16684 2.73711 2.73716 4.16679 2.73716 5.9304V8.18908C2.75606 10.7189 4.41668 12.9473 6.90294 13.9355ZM15.5105 23.948C15.5107 23.9924 15.5107 24.0369 15.5105 24.0817V25.743C17.1399 24.105 19.2909 22.9937 21.379 22.1505C23.8676 21.1456 25.5296 18.9123 25.5464 16.3811V5.9304C25.5464 4.1668 24.1167 2.73711 22.3531 2.73711H15.5105V23.948ZM22.4039 24.6885C18.6424 26.2074 15.8789 28.1609 15.5431 31.7429H22.3531C24.1167 31.7429 25.5464 30.3132 25.5464 28.5496V22.6579C24.6525 23.5194 23.5829 24.2124 22.4039 24.6885Z" fill="white"/>
<path fill-rule="evenodd" clip-rule="evenodd" d="M129.531 10.1851H126.428V16.4157C125.514 15.245 124.215 14.6596 122.531 14.6596C120.911 14.6596 119.524 15.277 118.369 16.5119C117.231 17.7308 116.661 19.2303 116.661 21.0105C116.661 22.7906 117.231 24.2982 118.369 25.5331C119.524 26.7519 120.911 27.3613 122.531 27.3613C124.215 27.3613 125.514 26.776 126.428 25.6052V27.0245H129.531V10.1851ZM123.108 24.4024C122.146 24.4024 121.344 24.0897 120.703 23.4642C120.077 22.8227 119.765 22.0048 119.765 21.0105C119.765 20.0161 120.077 19.2062 120.703 18.5808C121.344 17.9393 122.146 17.6185 123.108 17.6185C124.071 17.6185 124.865 17.9393 125.49 18.5808C126.115 19.2062 126.428 20.0161 126.428 21.0105C126.428 22.0048 126.115 22.8227 125.49 23.4642C124.865 24.0897 124.071 24.4024 123.108 24.4024Z" fill="white"/>
<path d="M43.8853 17.9794H46.6037V14.9964H43.8853V11.6285L40.782 12.5667V22.9831C40.782 24.635 41.215 25.7816 42.0811 26.4231C42.9631 27.0646 44.4707 27.2651 46.6037 27.0245V24.21C46.0103 24.242 45.5131 24.2501 45.1122 24.234C44.7112 24.2019 44.4065 24.0897 44.198 23.8972C43.9895 23.7048 43.8853 23.4001 43.8853 22.9831V17.9794Z" fill="white"/>
<path d="M53.0211 15.3332C52.3635 15.7181 51.8904 16.2954 51.6017 17.0652V14.9964H48.4985V27.0245H51.6017V21.2751C51.6017 20.1204 51.9706 19.2944 52.7083 18.7973C53.4621 18.3001 54.3121 18.1077 55.2583 18.2199V14.7558C54.4404 14.7558 53.6946 14.9483 53.0211 15.3332Z" fill="white"/>
<path fill-rule="evenodd" clip-rule="evenodd" d="M58.7679 22.2855C59.1849 23.793 60.3155 24.5467 62.1598 24.5467C63.3466 24.5467 64.2447 24.1458 64.8541 23.3439L67.356 24.7873C66.1692 26.5033 64.4211 27.3613 62.1117 27.3613C60.1231 27.3613 58.5273 26.7599 57.3245 25.5571C56.1217 24.3543 55.5203 22.8387 55.5203 21.0105C55.5203 19.1982 56.1137 17.6907 57.3004 16.4879C58.4872 15.269 60.0108 14.6596 61.8711 14.6596C63.6353 14.6596 65.0867 15.269 66.2253 16.4879C67.3801 17.7067 67.9574 19.2143 67.9574 21.0105C67.9574 21.4114 67.9173 21.8364 67.8371 22.2855H58.7679ZM58.7198 19.8798H64.8541C64.6777 19.0619 64.3089 18.4525 63.7475 18.0515C63.2023 17.6506 62.5768 17.4501 61.8711 17.4501C61.0372 17.4501 60.3476 17.6666 59.8023 18.0996C59.257 18.5166 58.8962 19.11 58.7198 19.8798Z" fill="white"/>
<path fill-rule="evenodd" clip-rule="evenodd" d="M75.5628 24.5467C73.7185 24.5467 72.5878 23.793 72.1708 22.2855H81.2401C81.3203 21.8364 81.3604 21.4114 81.3604 21.0105C81.3604 19.2143 80.783 17.7067 79.6283 16.4879C78.4896 15.269 77.0382 14.6596 75.2741 14.6596C73.4137 14.6596 71.8902 15.269 70.7034 16.4879C69.5166 17.6907 68.9232 19.1982 68.9232 21.0105C68.9232 22.8387 69.5246 24.3543 70.7274 25.5571C71.9303 26.7599 73.526 27.3613 75.5147 27.3613C77.8241 27.3613 79.5722 26.5033 80.7589 24.7873L78.2571 23.3439C77.6477 24.1458 76.7495 24.5467 75.5628 24.5467ZM78.2571 19.8798H72.1227C72.2991 19.11 72.66 18.5166 73.2053 18.0996C73.7505 17.6666 74.4401 17.4501 75.2741 17.4501C75.9798 17.4501 76.6052 17.6506 77.1505 18.0515C77.7118 18.4525 78.0807 19.0619 78.2571 19.8798Z" fill="white"/>
<path d="M88.677 27.3613C86.8648 27.3613 85.3493 26.7519 84.1304 25.5331C82.9276 24.3142 82.3262 22.8067 82.3262 21.0105C82.3262 19.2143 82.9276 17.7067 84.1304 16.4879C85.3493 15.269 86.8648 14.6596 88.677 14.6596C89.8478 14.6596 90.9143 14.9403 91.8765 15.5016C92.8388 16.0629 93.5685 16.8166 94.0657 17.7629L91.3954 19.3265C91.1548 18.8294 90.786 18.4364 90.2888 18.1478C89.8077 17.8591 89.2624 17.7148 88.653 17.7148C87.7228 17.7148 86.953 18.0275 86.3436 18.6529C85.7342 19.2624 85.4294 20.0482 85.4294 21.0105C85.4294 21.9567 85.7342 22.7425 86.3436 23.368C86.953 23.9774 87.7228 24.2821 88.653 24.2821C89.2785 24.2821 89.8317 24.1458 90.3129 23.8732C90.81 23.5845 91.1789 23.1916 91.4195 22.6944L94.1138 24.234C93.5845 25.1802 92.8388 25.942 91.8765 26.5194C90.9143 27.0807 89.8478 27.3613 88.677 27.3613Z" fill="white"/>
<path fill-rule="evenodd" clip-rule="evenodd" d="M107.331 14.9964H104.227V16.4157C103.297 15.245 101.99 14.6596 100.306 14.6596C98.7025 14.6596 97.3232 15.277 96.1685 16.5119C95.0299 17.7308 94.4605 19.2303 94.4605 21.0105C94.4605 22.7906 95.0299 24.2982 96.1685 25.5331C97.3232 26.7519 98.7025 27.3613 100.306 27.3613C101.99 27.3613 103.297 26.776 104.227 25.6052V27.0245H107.331V14.9964ZM100.884 24.4024C99.9213 24.4024 99.1274 24.0897 98.502 23.4642C97.8765 22.8227 97.5638 22.0048 97.5638 21.0105C97.5638 20.0161 97.8765 19.2062 98.502 18.5808C99.1274 17.9393 99.9213 17.6185 100.884 17.6185C101.846 17.6185 102.64 17.9393 103.265 18.5808C103.907 19.2062 104.227 20.0161 104.227 21.0105C104.227 22.0048 103.907 22.8227 103.265 23.4642C102.64 24.0897 101.846 24.4024 100.884 24.4024Z" fill="white"/>
<path d="M112.767 17.0652C113.055 16.2954 113.529 15.7181 114.186 15.3332C114.86 14.9483 115.605 14.7558 116.423 14.7558V18.2199C115.477 18.1077 114.627 18.3001 113.873 18.7973C113.136 19.2944 112.767 20.1204 112.767 21.2751V27.0245H109.664V14.9964H112.767V17.0652Z" fill="white"/>
<path d="M133.685 10.983H131.617V11.5129H132.372V13.7933H132.926V11.5129H133.685V10.983Z" fill="white"/>
<path d="M136.174 10.983H136.744V13.7933H136.194V11.9706L135.403 13.2754H135.339L134.548 11.9746V13.7933H133.994V10.983H134.564L135.371 12.3118L136.174 10.983Z" fill="white"/>
</svg>