<svg xmlns="http://www.w3.org/2000/svg" xmlns:xlink="http://www.w3.org/1999/xlink" id="Layer_1" x="0px" y="0px" viewBox="0 0 700 500" style="enable-background:new 0 0 700 500;" xml:space="preserve"> <style type="text/css"> .st0{fill:#E00644;} .st1{fill:#FFFFFF;} .st2{fill:#C9C9C9;} </style> <rect class="st0" width="700" height="500"/> <g> <polygon class="st1" points="215.8,236.2 222.3,250.3 208.8,250.3 "/> <path class="st1" d="M234.8,167.1c-40.6,0-73.5,32.9-73.5,73.5c0,40.6,32.9,73.6,73.5,73.6s73.5-32.9,73.5-73.6 C308.3,200.1,275.4,167.1,234.8,167.1z M230.6,268.3l-3.8-8.3h-22.8l-4.2,8.3h-14.7l30.7-61.3l28.2,61.3H230.6z M256,268.3 L227.9,207h13.4l3.8,8.3l4.4,9.7l6.5,14.1l7.1-14.1l4.8-9.7l4.2-8.3h14.7L256,268.3z"/> <g> <polygon class="st1" points="423.8,257.3 423.8,268.4 382.4,268.4 382.4,208.7 394.1,208.7 394.1,257.3 "/> <path class="st1" d="M479.3,208.7v35.2c0,15-12.1,27.1-27.1,27.1c-15,0-27.1-12.2-27.1-27.1v-35.2h12v35.6 c0,8.3,6.8,15.1,15.1,15.1c8.3,0,15.1-6.8,15.1-15.1v-35.6H479.3z"/> <path class="st1" d="M372.9,262.2c-5.7,6-13.8,9.7-22.8,9.7c-17.4,0-31.6-14.1-31.6-31.6c0-17.5,14.2-31.6,31.6-31.6 c8.7,0,16.6,3.5,22.3,9.2l-8.2,8.9c-3.5-3.7-8.6-6.1-14.2-6.1c-10.8,0-19.6,8.7-19.6,19.6c0,10.8,8.8,19.5,19.6,19.5 c5.8,0,11-2.5,14.6-6.6L372.9,262.2z"/> <path class="st1" d="M531,237.7c2.8-3.1,4.5-7.2,4.5-11.7c0-9.6-7.8-17.3-17.3-17.3h-26.8V271H519c5.2,0,9.9-2.1,13.3-5.5 s5.5-8.1,5.5-13.3C537.8,246.4,535.2,241.2,531,237.7z M502.4,220.5h14.4c3.6,0,6.5,2.9,6.5,6.5c0,1.8-0.7,3.4-1.9,4.6 c-1.2,1.2-2.8,1.9-4.6,1.9h-14.4V220.5z M524.1,256.3c-1.3,1.2-3,2-4.9,2h-16.7v-13.8h16.7c3.8,0,6.9,3.1,6.9,6.9 C526.1,253.3,525.3,255,524.1,256.3z"/> </g> </g> </svg>