<?xml version="1.0" encoding="UTF-8"?>
<svg xmlns="http://www.w3.org/2000/svg" id="Layer_1" data-name="Layer 1" viewBox="0 0 700 500"><defs><style>.cls-1{fill:#e00644;}.cls-2{fill:#fff;}</style></defs><rect class="cls-1" width="700" height="500"/><path class="cls-2" d="M246.73,297.18q-11.83-.46-19.41-6.48a39.41,39.41,0,0,1-4-4,25.12,25.12,0,0,1-4.37-7.86c-2.86-8.56-1.38-19.8,4.21-32.13,4.79-10.55,12.18-21,25.08-35.52,1.9-2.13,7.55-8.37,7.59-8.37s-.29.53-.68,1.18a76.46,76.46,0,0,0-7.79,18c-2.51,9.19-2.2,17.08.89,23.19a22.58,22.58,0,0,0,9.91,9.88c7.21,3.53,17.75,3.82,30.64.86.88-.21,44.83-11.88,97.66-25.93s96.06-25.55,96.07-25.54S359.76,256.92,296,284.17c-10.09,4.32-12.79,5.41-17.54,7.07C266.38,295.5,255.51,297.53,246.73,297.18Z"/></svg>