<?xml version="1.0" encoding="UTF-8"?>
<svg xmlns="http://www.w3.org/2000/svg" id="Layer_1" data-name="Layer 1" viewBox="0 0 700 500"><defs><style>.cls-1{fill:#e00644;}.cls-2{fill:#fff;}</style></defs><rect class="cls-1" width="700" height="500"/><path class="cls-2" d="M342.52,253.8a2.73,2.73,0,0,0,.39-.73,17.63,17.63,0,0,1,1.78-4.58,19.79,19.79,0,0,1,5.44-6.29,18.19,18.19,0,0,1,5.05-2.69,28.28,28.28,0,0,1,3.78-.83,12.22,12.22,0,0,1,2-.21,18.65,18.65,0,0,1,9.67,2.42,19.66,19.66,0,0,1,7.94,8.39c.64,1.27.95,2.64,1.48,3.93.06.13.11.25.23.54a6.74,6.74,0,0,0,.29-.74,21.15,21.15,0,0,1,3-6.9,16.31,16.31,0,0,1,7.24-6,16.6,16.6,0,0,1,8.23-1.36,14.62,14.62,0,0,1,7,2.6c.25.18.51.34.81.54.48-.8,0-1.66.37-2.47h11.93c.2.82.25,36.13.07,37.37-.75.18-10.71.23-12.05.05l-.2-1.83a24.33,24.33,0,0,1-5.41,2.18,17.13,17.13,0,0,1-5.66.26,17.74,17.74,0,0,1-5.54-1.58,18.31,18.31,0,0,1-4.73-3.24,16.34,16.34,0,0,1-3.36-4.52,17.78,17.78,0,0,1-1.86-5.47,2.27,2.27,0,0,0-.83,1.53,18.12,18.12,0,0,1-2.66,5.33,18.47,18.47,0,0,1-6.82,5.89,16.1,16.1,0,0,1-5.58,1.8c-.62.07-1.24.26-1.87.29a19.3,19.3,0,0,1-9.5-1.9,18.81,18.81,0,0,1-7.77-7,19.2,19.2,0,0,1-2.43-5.66c-.05-.2-.25-.35-.41-.58-.41,1.25-.75,2.38-1.14,3.5a17.94,17.94,0,0,1-3.32,5.68,16.25,16.25,0,0,1-7.71,5.21,14.66,14.66,0,0,1-8.2.34,13.94,13.94,0,0,1-5.81-3,1.59,1.59,0,0,0-.35-.22,1.37,1.37,0,0,0-.28,0c-.54.92,0,2-.32,2.93a103,103,0,0,1-11.81,0V224.51a15.28,15.28,0,0,1,2.94-.1c1,0,2,0,3.06,0h6c0,.47.1.87.1,1.28q0,7.07,0,14.14c0,.37,0,.75.05,1.32a21.1,21.1,0,0,1,4.63-1.91,18.1,18.1,0,0,1,4.8-.45,17.77,17.77,0,0,1,4.85.85,20.74,20.74,0,0,1,4.46,2.12,17.9,17.9,0,0,1,3.67,3.28,15.29,15.29,0,0,1,2.58,4.06C341.38,250.59,341.9,252.14,342.52,253.8ZM406.07,258a7.31,7.31,0,1,0-14.62-.06,7.31,7.31,0,1,0,14.62.06Zm-75.75.36c.34-4-3.51-7.43-7.22-7.39a7.34,7.34,0,0,0-7.32,7.26,7.24,7.24,0,0,0,7,7.44C327.21,265.79,330.61,262.09,330.32,258.33Zm31.05-8a7.34,7.34,0,0,0-7.23,7.45,7.29,7.29,0,1,0,14.58-.09C368.69,253.41,365.51,250.54,361.37,250.35Z"/><path class="cls-2" d="M229.6,273.62l-.17,3.26H217.5v-52.3a109.74,109.74,0,0,1,12.06-.1,11.26,11.26,0,0,1,.1,1.18V239.8c0,.38,0,.75.05,1.29a4.76,4.76,0,0,0,.86-.31,14.8,14.8,0,0,1,9.2-1.94,19.1,19.1,0,0,1,5.12,1.09,17.48,17.48,0,0,1,6,3.72,16.56,16.56,0,0,1,2.9,3.56,20,20,0,0,1,1.94,4.29,22.45,22.45,0,0,1,1.05,6.84,21.52,21.52,0,0,1-1,6.41,19.32,19.32,0,0,1-2.7,5.55,17.6,17.6,0,0,1-4.91,4.66,15.73,15.73,0,0,1-9.8,2.5,12.92,12.92,0,0,1-7.75-3.15A11.92,11.92,0,0,0,229.6,273.62Zm14.81-15.29a7.3,7.3,0,1,0-14.59,0,7.3,7.3,0,1,0,14.59,0Z"/><path class="cls-2" d="M470,241c.48-.45.37-.93.38-1.38,0-4.64,0-9.29,0-13.93,0-.41.05-.82.09-1.27h11.9c0,.34.12.67.13,1,0,1.12,0,2.25,0,3.37q0,23.43,0,46.86v1.16a22.75,22.75,0,0,1-3,.07c-1,0-2,0-3.06,0h-6v-3c-.54-.2-.76.16-1,.37a11.67,11.67,0,0,1-4.45,2.51,14.85,14.85,0,0,1-7.8.37,17.21,17.21,0,0,1-11.34-8.61,15.86,15.86,0,0,1-1.91-4.62c-.6-2.73-1.12-5.52-.5-8.35.17-.78.17-1.61.35-2.39a18,18,0,0,1,8.22-11.8,17.82,17.82,0,0,1,9.82-2.64,16.29,16.29,0,0,1,6.34,1.32C468.83,240.32,469.38,240.69,470,241Zm-7.07,9.88a6.89,6.89,0,0,0-5.35,2.3,8.55,8.55,0,0,0-2.07,4.9c.27,4,3,7.42,7.51,7.42a7.31,7.31,0,0,0-.09-14.62Z"/><path class="cls-2" d="M288.48,224.4h10.83c1.25,0,1.26,0,1.26,1.22v51.24H288.44c0-.36-.1-.73-.1-1.1q0-22.86,0-45.71c0-1.44,0-2.88,0-4.32C288.35,225.31,288.43,224.9,288.48,224.4Z"/><path class="cls-2" d="M285.57,276.87h-12a13.8,13.8,0,0,1-.12-1.38c0-2.53,0-5.06,0-7.59q0-12.49.07-25c0-5.73,0-11.46,0-17.18,0-.41.05-.82.08-1.28h11.91a9.78,9.78,0,0,1,.13,1.2c0,5.34,0,10.69,0,16v35.2Z"/><path class="cls-2" d="M434.29,276.85H422.14V239.5a109,109,0,0,1,12.1-.09c0,1.11.06,2.25.09,3.38a10.5,10.5,0,0,1,5.12-3.39,5.46,5.46,0,0,1,3-.34v12.45a2.37,2.37,0,0,1-1.41.24,8.16,8.16,0,0,0-3.66.82,5.54,5.54,0,0,0-2.89,4,14.34,14.34,0,0,0-.23,2.62c0,5.48,0,11,0,16.46Z"/><path class="cls-2" d="M270.5,239.42v37.43H258.41V239.5A109.44,109.44,0,0,1,270.5,239.42Z"/><path class="cls-2" d="M264.4,236.61a7.09,7.09,0,1,1,7.15-7.07A7,7,0,0,1,264.4,236.61Z"/></svg>