<?xml version="1.0" encoding="UTF-8"?>
<svg xmlns="http://www.w3.org/2000/svg" id="Layer_1" data-name="Layer 1" viewBox="0 0 700 500"><defs><style>.cls-1{fill:#e00644;}.cls-2{fill:#fff;}</style></defs><rect class="cls-1" width="700" height="500"/><path id="path4" class="cls-2" d="M276.74,247.79q-.39,8.66-12.09,23.71-12.09,15.71-20.45,15.71-5.19,0-8.77-9.57-2.38-8.77-4.78-17.55-2.66-9.57-5.71-9.57c-.44,0-2,.93-4.65,2.79l-2.79-3.59q4.38-3.85,8.65-7.72,5.85-5.06,8.78-5.32,6.91-.66,8.52,9.46,1.73,10.94,2.39,13.59c1.33,6,2.8,9.06,4.39,9.06q1.88,0,5.59-5.88t4-9c.36-3.38-1-5.08-4-5.08a11.14,11.14,0,0,0-4.38,1q4.37-14.31,16.69-13.91,9.14.26,8.61,11.85"/><path id="path6" class="cls-2" d="M301.74,219.16q-.12,3.32-3.33,6.36A11.89,11.89,0,0,1,289.9,229q-7.59,0-7.32-6.62c.08-2.29,1.44-4.5,4.05-6.62a13.54,13.54,0,0,1,8.72-3.18,5.86,5.86,0,0,1,4.66,2.19A6.21,6.21,0,0,1,301.74,219.16Zm11.58,47.33a44.8,44.8,0,0,1-10.25,12.76Q294.16,287,285.24,287a7.71,7.71,0,0,1-6.32-2.67,10,10,0,0,1-2.06-6.91q.12-4.38,2.72-13.57t2.6-9.84c0-2.31-.8-3.46-2.4-3.46-.52,0-2,.93-4.52,2.79l-3.06-3.59q4.26-3.85,8.51-7.72,5.73-5.06,8.53-5.32,4.38-.39,6.45,2.59a11.14,11.14,0,0,1,1.53,7.75q-1.73,8.08-3.73,20.55-.14,5.7,4.13,5.7,1.86,0,6.65-3.93a55.37,55.37,0,0,0,6.53-6.18l2.52,3.33"/><path id="path8" class="cls-2" d="M396.44,266.48a44.88,44.88,0,0,1-10.25,12.77Q377.27,287,368.36,287q-8.66,0-8.39-9.58a48,48,0,0,1,1.66-10.23,47.7,47.7,0,0,0,1.66-9.32c.1-3.36-.93-5-3.07-5q-3.47,0-8.28,8.25-5.07,8.66-5.47,16.77c-.19,3.82.19,6.75,1.12,8.78q-9.29.27-13-3.06-3.33-2.92-3-9.71a34.92,34.92,0,0,1,1.3-8.52,34.26,34.26,0,0,0,1.31-7.59c.19-3.28-1-4.92-3.6-4.92q-3.33,0-7.2,7.59a38.75,38.75,0,0,0-4.26,15.83c-.19,5,.15,8.43,1,10.38q-9.14.27-13-3.84-3.19-3.45-2.92-10.49a72.28,72.28,0,0,1,1.23-9.62A73.64,73.64,0,0,0,306.6,253c.19-1.59-.23-2.39-1.2-2.39q-.79,0-4.52,2.69l-3.2-3.59q.68-.53,8.39-7.72,5.58-5.17,7.58-5.32a5.89,5.89,0,0,1,5.59,2.86,12.6,12.6,0,0,1,2.13,7.25,10.91,10.91,0,0,1-.26,2.53,24.36,24.36,0,0,1,4.65-5.32,23.61,23.61,0,0,1,13.71-6q6.52-.54,9.32,3.06c1.5,2,2.21,4.75,2.13,8.38l2-1.73a35.32,35.32,0,0,1,6-5.72,19.81,19.81,0,0,1,10.25-4q6.39-.54,9.18,3.05c1.6,1.94,2.31,4.73,2.13,8.35a61.48,61.48,0,0,1-1.8,10.81,69.51,69.51,0,0,0-1.66,8.15,7.15,7.15,0,0,0,.53,3.84c.45.71,1.51,1.06,3.2,1.06,1.24,0,3.45-1.31,6.65-3.94a54.39,54.39,0,0,0,6.52-6.17l2.54,3.32"/><path id="path10" class="cls-2" d="M416.13,252.45c.09-2.38-.89-3.57-2.92-3.57q-4,0-8.11,5.49t-4.25,10.53a7.46,7.46,0,0,0,0,1.72,29.94,29.94,0,0,0,11.29-7.28Q416,255.11,416.13,252.45Zm30.21,13.9q-3.85,6.38-15.17,12.76-14.1,8.1-28.61,8.1-10.79,0-15.44-7.18a19.77,19.77,0,0,1-3.2-11.71q.13-10.79,9.59-20.49,10.38-10.65,24.48-10.65,13,0,13.85,10.62.53,6.76-7.46,13.94-8.52,7.85-21.42,9.95c1.59,2.22,4,3.32,7.18,3.32q9.58,0,20.9-4.87A55.6,55.6,0,0,0,443.82,263l2.52,3.32"/><path id="path12" class="cls-2" d="M467.43,256.93a16.83,16.83,0,0,0-1-6.6c-.75-2-1.84-3-3.26-3q-6.8,0-11.18,7.34a25.8,25.8,0,0,0-4,12.8,11.4,11.4,0,0,0,1.2,5.87q1.46,2.93,4.12,2.93,6,0,10.25-7.07A25.18,25.18,0,0,0,467.43,256.93Zm15,.5a31.66,31.66,0,0,1-9.05,21.13,28.13,28.13,0,0,1-21.16,8.9q-10.51,0-16-6.78a21.58,21.58,0,0,1-4.39-12.62q-.67-11.43,8.25-21a31.07,31.07,0,0,1,24.09-10.63q9.3,0,14.1,6.25,4.53,5.72,4.13,14.75"/></svg>