<?xml version="1.0" encoding="UTF-8"?>
<svg xmlns="http://www.w3.org/2000/svg" id="Layer_1" data-name="Layer 1" viewBox="0 0 700 500"><defs><style>.cls-1{fill:#e00644;}.cls-2{fill:#fff;}</style></defs><rect class="cls-1" width="700" height="500"/><path class="cls-2" d="M261.72,286.66c.27-1.6.53-3.17.8-4.73.76-4.32,1.53-8.64,2.28-13,.62-3.52,1.22-7,1.86-10.56a2.17,2.17,0,0,0-.33-1.73,66.66,66.66,0,0,1-7.25-14.44c-.46-1.28-.86-2.59-1.28-3.89l-.33-1a2.14,2.14,0,0,0-.15,1.16c0,3.64,0,7.29,0,10.93a27.44,27.44,0,0,1-1.51,9.68,18.86,18.86,0,0,1-9.18,10.7,19.15,19.15,0,0,1-8.54,2.08,20.22,20.22,0,0,1-6.83-.89,19.09,19.09,0,0,1-11.78-10.81,23,23,0,0,1-2-9.86c.07-6.54,0-13.08,0-19.62,0-1.59-.19-1.41,1.38-1.41h7.32c.9,0,.91,0,.91.93,0,6.67,0,13.34,0,20a16.42,16.42,0,0,0,1.45,7,9.77,9.77,0,0,0,15.2,3.63,10.77,10.77,0,0,0,3.2-5.49,17.71,17.71,0,0,0,.65-4.81q0-10.06,0-20.11c0-1.24-.1-1.17,1.16-1.17h14.94c.7,0,.71,0,.88.75a71.21,71.21,0,0,0,3.73,11.39c.31.74.66,1.47,1,2.22.34-.15.31-.44.37-.67a20.21,20.21,0,0,1,8.13-11.35,19.26,19.26,0,0,1,9.89-3.5,22.85,22.85,0,0,1,10.61,1.56c7,3,11.43,8.23,12.92,15.74a22.08,22.08,0,0,1-1,12.76c-2.89,7.21-8.14,11.75-15.76,13.3a21.7,21.7,0,0,1-18-4.17c-.37-.27-.72-.55-1.08-.83-.52-.4-.64-.36-.74.24-.19,1.19-.38,2.37-.58,3.56q-.94,5.82-1.9,11.64c-.23,1.41-.46,2.82-.66,4.24-.06.39-.21.56-.62.56-3,0-6,0-9,0A1.59,1.59,0,0,1,261.72,286.66Zm40.38-36.13a16.06,16.06,0,0,0-1-6.05A11.38,11.38,0,0,0,295,237.9a12.16,12.16,0,0,0-7-.78,10.15,10.15,0,0,0-6.25,3.5,14.6,14.6,0,0,0-2.12,3.26,35.32,35.32,0,0,0-2.92,10.67,1.86,1.86,0,0,0,.4,1.45,15.8,15.8,0,0,0,3.26,3.47c3.39,2.56,7.08,4.18,11.49,3.52a11.21,11.21,0,0,0,7.6-4.47A13.43,13.43,0,0,0,302.1,250.53Z"/><path class="cls-2" d="M341.39,241.75c-.48,1.74-.95,3.43-1.41,5.12l-6.27,22.94c-.2.74-.21.75-1,.75h-10c-.79,0-.8,0-1-.83l-4.14-16q-3-11.65-6-23.31a2.29,2.29,0,0,1-.09-.28c-.14-.64-.08-.75.6-.75h8.29c.67,0,.67,0,.86.79q1.74,7.2,3.47,14.4c1,4.11,2,8.22,3,12.32.07.25.15.5.22.77.23-.15.24-.39.29-.58q2.87-11.14,5.72-22.28c.4-1.55.79-3.09,1.2-4.63.2-.77.21-.79,1-.79h10.74c.73,0,.73,0,.94.83q2.14,8.36,4.3,16.71,1.31,5,2.6,10.1c.06.22.13.43.21.68a2,2,0,0,0,.32-.82q3.19-13.27,6.4-26.53c0-.16.07-.32.1-.48a.56.56,0,0,1,.63-.49c.25,0,.52,0,.78,0h8c1,0,1,0,.74.93-.17.66-.35,1.32-.53,2l-9.72,35.55c-.19.69-.37,1.38-.57,2.07s-.18.61-.8.61H350.19c-.86,0-.86,0-1.1-.87q-1.92-7.11-3.85-14.21-1.74-6.39-3.47-12.79A2.29,2.29,0,0,0,341.39,241.75Z"/><path class="cls-2" d="M467.29,248.2,475,259.39l7.55,11a1.24,1.24,0,0,1-.91.16c-3,0-6,0-9,0a1.46,1.46,0,0,1-1.4-.78q-4.26-6.48-8.55-12.94c-1.24-1.88-2.5-3.73-3.69-5.63a1.45,1.45,0,0,0-1.58-.84,5.1,5.1,0,0,1-.68,0,.41.41,0,0,0-.42.44c0,.26,0,.52,0,.78,0,2,0,4,0,5.95q0,6.09-.1,12.19c0,.77,0,.79-.74.79h-8.1c-.71,0-.71,0-.73-.69,0-.2,0-.39,0-.59V214.53c0-1.42-.18-1.3,1.31-1.3h7.8c.36,0,.56.14.56.52v.88q0,12.87,0,25.76c0,1.28-.25,1.37,1.33,1.24A16.64,16.64,0,0,0,464,240a10.7,10.7,0,0,0,6-9.35c0-.16,0-.33,0-.49.06-.61.1-.67.71-.67h8.29c.57,0,.68.14.64.71-.55,8-4.3,14-11.53,17.61Z"/><path class="cls-2" d="M414.57,250.09a21.47,21.47,0,0,1-42.71,3.73,23.37,23.37,0,0,1,1.06-11.72,21,21,0,0,1,15.17-13.48,15.15,15.15,0,0,1,4-.53,22.44,22.44,0,0,1,14.23,4.48,21.26,21.26,0,0,1,7.83,12.23A19.27,19.27,0,0,1,414.57,250.09Zm-33.27,1.13a11.63,11.63,0,0,0,.86,4.25,11.29,11.29,0,0,0,8.58,7.58,7,7,0,0,0,2.12.21c.6-.07,1.21-.17,1.82-.26a11.14,11.14,0,0,0,9.15-6.86,15,15,0,0,0,.69-10.3,11.44,11.44,0,0,0-5.64-7.27,11.57,11.57,0,0,0-6-1.43,11,11,0,0,0-8.84,4.42C382.06,244.08,381.26,247,381.3,251.22Z"/><path class="cls-2" d="M428.32,233.59A2.1,2.1,0,0,0,429,233a13.12,13.12,0,0,1,7.71-3.85,30.56,30.56,0,0,1,5.06-.19c.71,0,.73,0,.74.7v8c0,.67,0,.67-.75.68-.94,0-1.89,0-2.83,0a14.37,14.37,0,0,0-4.2.78,8.28,8.28,0,0,0-5.3,5.46,18.41,18.41,0,0,0-.8,3.82,42.75,42.75,0,0,0-.23,5.06v16c0,1.11.06,1.05-1.07,1.05h-7.81c-.77,0-.77,0-.79-.75,0-.16,0-.32,0-.48V230.75c0-1.42-.09-1.32,1.33-1.32h7.71c.32,0,.47.15.47.47,0,.91,0,1.82,0,2.73A1.82,1.82,0,0,0,428.32,233.59Z"/></svg>