<?xml version="1.0" encoding="UTF-8"?>
<svg xmlns="http://www.w3.org/2000/svg" id="Layer_1" data-name="Layer 1" viewBox="0 0 700 500"><defs><style>.cls-1{fill:#e00644;}.cls-2{fill:#fff;}</style></defs><rect class="cls-1" width="700" height="500"/><g id="_000000ff" data-name="#000000ff"><path class="cls-2" d="M217.5,183.5h27.55a19.11,19.11,0,0,1,12.92,5,13.93,13.93,0,0,1,4.57,10.45,14.93,14.93,0,0,1-3.32,10,15.93,15.93,0,0,1-7.15,4.77,12.91,12.91,0,0,1,7.28,4.89,11.33,11.33,0,0,1,1.85,6.48c0,4.19,0,8.38,0,12.56H249.55c0-3.36,0-6.72,0-10.09-.08-2.4-.63-5-2.37-6.72s-4.54-2.4-7.05-2.51-5.25,0-7.88,0c0-3.13,0-6.25,0-9.37,3.79,0,7.57,0,11.36,0a7.14,7.14,0,0,0,6.32-4c1.54-3.16,1.07-7.49-1.71-9.82a8.83,8.83,0,0,0-5.68-1.78h-14q0,17.3,0,34.6h-11Z"/><path class="cls-2" d="M357,183.5h11.38q0,17.49,0,35h8.75a7.7,7.7,0,0,0,7.44-6.8c.61-3.87-2.05-8.09-6-8.78a57.61,57.61,0,0,0-6.3-.14c0-3.15,0-6.3,0-9.44h7.33A16.19,16.19,0,0,1,392.74,200a18.5,18.5,0,0,1,3,14.42c-1.4,6.18-6.69,10.88-12.61,12.67-3,1-6.15.93-9.24.92H357Q357,205.74,357,183.5Z"/><path class="cls-2" d="M446.44,183.51h11.47v21.18c2.4-.08,4.83.21,7.2-.22a6.69,6.69,0,0,0,4.8-4.28c.91-2.21.85-4.65.93-7,3.75,0,7.51,0,11.27,0-.09,3.66-.06,7.56-2,10.82-1.64,2.85-4.72,4.42-7.74,5.39,3.57,1,7.05,3.16,8.64,6.63,1.86,3.68,1.22,7.89,1.33,11.85H471c-.22-3.28.68-6.87-1.09-9.85-1.36-2.47-4.21-3.72-6.93-3.89-1.68-.07-3.37,0-5,0v13.77H446.44Z"/><path class="cls-2" d="M415.82,193.19a26.22,26.22,0,0,1,16.79,2.22,16.78,16.78,0,0,1,8.19,9.92,18.59,18.59,0,0,1-2.27,15.76A19.1,19.1,0,0,1,427,228.51,25.21,25.21,0,0,1,411,227,18,18,0,0,1,401,215.4a18.23,18.23,0,0,1,3.09-15.57,19.34,19.34,0,0,1,11.69-6.64m2.81,8.8a9.18,9.18,0,0,0-2.35,16.79,9.11,9.11,0,0,0,8.71.42A9.21,9.21,0,0,0,418.63,202Z"/><path class="cls-2" d="M269,201.37a17.25,17.25,0,0,1,14.12-8.06c7.37,0,14.73,0,22.1,0-.06,3.38.11,6.79-.08,10.14-2.4,3.82-4.85,7.6-7.27,11.4-3.66,0-7.31,0-11,0,2.42-4,4.85-8,7.24-12.08-2.95,0-5.91,0-8.86,0a7.71,7.71,0,0,0-6.64,3.72,7.94,7.94,0,0,0,7,12.1h19.62V228H286.37a25.44,25.44,0,0,1-7.73-.76,17.22,17.22,0,0,1-11-10A17.54,17.54,0,0,1,269,201.37Z"/><path class="cls-2" d="M317.62,196.65a17.19,17.19,0,0,1,10.07-3.35H349.4c0,3.38,0,6.75,0,10.13q-3.65,5.7-7.3,11.41H331.16c2.39-4,4.83-8.05,7.23-12.09-3.22,0-6.44,0-9.67,0a7.92,7.92,0,0,0,.53,15.78c6.75,0,13.49,0,20.24,0,0,3.15,0,6.3,0,9.45-7.25,0-14.5,0-21.76,0a17,17,0,0,1-12-5,17.43,17.43,0,0,1,1.92-26.3Z"/><path class="cls-2" d="M407.84,251.58c24.83-2.74,49.74-4.7,74.66-6.3C469,248.71,455.5,252,442.15,256a548.82,548.82,0,0,0-55.08,19.48c-9.44-5.57-18.93-11.09-28.37-16.67C375,255.57,391.39,253.46,407.84,251.58Z"/><path class="cls-2" d="M228.31,246.8c31.06,0,62.14,0,93.2,0,6.78,3.42,13.33,7.31,19.95,11Q379.94,280,418,302.78c6.1,3.66,12.21,7.31,18.24,11.08a43.94,43.94,0,0,1,4,2.64c-27.44-11.53-54.63-23.67-82.44-34.25a649.68,649.68,0,0,0-72.54-23.1c-13.59-3.49-27.28-6.52-41-9.26C238.92,248.8,233.57,248,228.31,246.8Z"/><path class="cls-2" d="M262.39,292.23c12.91-8.46,27.16-14.66,41.66-19.81,8.64,2.33,17.13,5.21,25.65,8a140.64,140.64,0,0,0-32,17.46c-6.26,4.71-12.3,9.89-17.07,16.15q-21.09,0-42.18,0A100,100,0,0,1,262.39,292.23Z"/><path class="cls-2" d="M305.33,304.47a123.63,123.63,0,0,1,33-21.13c6.76,2.36,13.47,4.87,20.15,7.45-5.78,4.11-11.54,8.36-16.35,13.62a78,78,0,0,0-7.48,9.58c-12.72,0-25.44,0-38.16,0A68.17,68.17,0,0,1,305.33,304.47Z"/></g></svg>