<?xml version="1.0" encoding="UTF-8"?>
<svg xmlns="http://www.w3.org/2000/svg" xmlns:xlink="http://www.w3.org/1999/xlink" id="Layer_1" data-name="Layer 1" viewBox="0 0 700 500"><defs><style>.cls-1{isolation:isolate;}.cls-2{clip-path:url(#clip-path);}.cls-11,.cls-12,.cls-3,.cls-6,.cls-9{fill:none;}.cls-3{clip-path:url(#clip-path-8);}.cls-4{fill:url(#linear-gradient);}.cls-5{clip-path:url(#clip-path-2);}.cls-6{clip-path:url(#clip-path-5);}.cls-7{fill:url(#linear-gradient-2);}.cls-8{clip-path:url(#clip-path-3);}.cls-9{clip-path:url(#clip-path-6);}.cls-10{fill:url(#linear-gradient-3);}.cls-12{clip-path:url(#clip-path-4);}.cls-13{fill:#e00644;}.cls-14,.cls-16{fill:#fff;}.cls-14{fill-rule:evenodd;}.cls-15{mask:url(#mask);}.cls-17{mask:url(#mask-2);}.cls-18{mask:url(#mask-3);}</style><clipPath id="clip-path"><polygon class="cls-3" points="217.5 178.73 249.8 267.48 259.76 263.85 257.43 257.47 253.87 258.76 223.89 176.4 217.5 178.73"/></clipPath><linearGradient id="linear-gradient" x1="-572.17" y1="-1538.67" x2="-571.9" y2="-1538.67" gradientTransform="translate(459176.59 -390279.72) rotate(-110) scale(367.08)" gradientUnits="userSpaceOnUse"><stop offset="0" stop-color="#fff"/><stop offset="0.55" stop-color="#fff"/><stop offset="1"/></linearGradient><clipPath id="clip-path-2"><polygon class="cls-6" points="253.87 258.76 252.87 256.01 246.48 258.34 249.8 267.48 482.5 182.78 480.17 176.39 253.87 258.76"/></clipPath><linearGradient id="linear-gradient-2" x1="-565.89" y1="-1536.55" x2="-565.63" y2="-1536.55" gradientTransform="translate(999528.1 1181995.27) rotate(-20) scale(945.13)" gradientUnits="userSpaceOnUse"><stop offset="0" stop-color="#fff"/><stop offset="0.6" stop-color="#fff"/><stop offset="1"/></linearGradient><clipPath id="clip-path-3"><polygon class="cls-9" points="353.12 277.22 351.38 286.97 368.05 286.97 346.77 315.02 345.23 323.61 378.5 323.61 455.38 323.61 457.1 313.86 380.25 313.86 362.02 313.86 383.44 285.81 384.97 277.22 353.12 277.22"/></clipPath><linearGradient id="linear-gradient-3" x1="-563.76" y1="-1534.55" x2="-563.5" y2="-1534.55" gradientTransform="translate(121960.74 678059.32) rotate(10) scale(421.2)" gradientUnits="userSpaceOnUse"><stop offset="0" stop-color="#fff"/><stop offset="0.5" stop-color="#fff"/><stop offset="1"/></linearGradient><clipPath id="clip-path-4"><rect class="cls-11" x="246.48" y="176.39" width="236.02" height="91.09"/></clipPath><clipPath id="clip-path-5"><rect class="cls-12" x="246.48" y="176.39" width="236.02" height="91.09"/></clipPath><clipPath id="clip-path-6"><rect class="cls-11" x="345.23" y="277.22" width="111.87" height="46.39"/></clipPath><clipPath id="clip-path-8"><rect class="cls-11" x="217.5" y="176.4" width="42.26" height="91.08"/></clipPath><mask id="mask" x="188.96" y="162.94" width="100.78" height="118.23" maskUnits="userSpaceOnUse"><g id="SVGID"><g class="cls-1"><g class="cls-2"><polygon class="cls-4" points="223.17 281.18 188.96 187.17 255.52 162.94 289.73 256.95 223.17 281.18"/></g></g></g></mask><mask id="mask-2" x="217.14" y="101.37" width="294.57" height="242.79" maskUnits="userSpaceOnUse"><g id="SVGID-2" data-name="SVGID"><g class="cls-1"><g class="cls-5"><polygon class="cls-7" points="217.14 187.88 454.83 101.37 511.71 257.65 274.02 344.16 217.14 187.88"/></g></g></g></mask><mask id="mask-3" x="336.82" y="257.51" width="127.72" height="84.64" maskUnits="userSpaceOnUse"><g id="SVGID-3" data-name="SVGID"><g class="cls-1"><g class="cls-8"><polygon class="cls-10" points="348.12 257.51 464.54 278.03 453.24 342.14 336.82 321.61 348.12 257.51"/></g></g></g></mask></defs><rect class="cls-13" width="700" height="500"/><path class="cls-14" d="M336.92,272.93l1.67-9.5h13.34l-1.67,9.5Zm-100.39,37.9-5.75-33.61h13.34l2.16,21.23,9.57-21.23h12.83L251.4,310.83Zm184.56,0L427,277.22H439.2l-.93,5.26c3.73-4,7.38-6.22,12.45-6.22,8.85,0,12.1,5.2,10.48,14.43l-3.55,20.14H444.31l3.13-17.77c.58-3.33.21-6.28-3.58-6.28-4.1,0-5.65,2.63-6.41,6.93l-3,17.12Zm-118.47,0,5.92-33.61h12.12l-1.2,6.8h.13c2.79-5.26,6.5-7.76,11.69-7.76a15.78,15.78,0,0,1,1.7.19l-2.35,13.34a20,20,0,0,0-2.69-.38c-5.45,0-8.66,2.56-9.94,9.81l-2,11.61Zm101.7-25.59c-4.55,0-6.73,4.68-7.39,8.47-1.12,6.34.77,9.1,4.16,9.1,3.6,0,6.26-2.76,7.38-9.1.87-4.94-.65-8.66-4.15-8.47m-21.43,9.17c2.06-11.67,10.89-18.15,22.25-18.15,11.86,0,17.94,7,16.1,17.45-2.17,12.31-11.53,18.08-22.3,18.08s-18.07-5.9-16.05-17.38m-104.84-4.17h12.12a4.92,4.92,0,0,0-4.87-5.84c-4,0-6.62,2.25-7.25,5.84m24.26,6.8H276.85c-.7,4,1.91,6.6,5.44,6.6a6.51,6.51,0,0,0,5.52-2.95h12.77c-3.78,8.34-12.73,11.1-20.56,11.1-10.77,0-18-6.16-16-17.44,1.95-11,11.47-18.09,22.24-18.09,12.44,0,18.43,8.59,16.09,20.78m41.26,13.79H330.23l5.93-33.61H349.5Z"/><g class="cls-15"><polygon class="cls-16" points="253.87 258.76 257.43 257.47 259.76 263.85 249.8 267.48 217.5 178.72 223.89 176.4 253.87 258.76"/></g><g class="cls-17"><polygon class="cls-16" points="253.87 258.76 480.18 176.39 482.5 182.78 249.8 267.48 246.48 258.34 252.87 256.01 253.87 258.76"/></g><g class="cls-18"><polygon class="cls-16" points="345.23 323.61 346.77 315.02 368.05 286.97 351.38 286.97 353.12 277.22 384.98 277.22 383.44 285.81 362.02 313.86 380.25 313.86 457.1 313.86 455.38 323.61 378.5 323.61 345.23 323.61"/></g></svg>