<?xml version="1.0" encoding="UTF-8"?>
<svg xmlns="http://www.w3.org/2000/svg" id="Layer_1" data-name="Layer 1" viewBox="0 0 700 500"><defs><style>.cls-1{fill:#e00644;}.cls-2{fill:#fff;}</style></defs><rect class="cls-1" width="700" height="500"/><path class="cls-2" d="M254.32,247.87a.66.66,0,0,0,.88-.08,5.41,5.41,0,0,0,1.36-1.9c.62-1.26,1.36-2.48,1.91-3.77a8.45,8.45,0,0,0,.9-3.88c-.1-1.59-.13-3.18-.21-4.77a11.63,11.63,0,0,1,1.7-7.2,10.47,10.47,0,0,1,2.08-2.36,30.36,30.36,0,0,1,3.32-2.26,12.83,12.83,0,0,1,2.11-.92,27.08,27.08,0,0,1,4.72-1.45c1.26-.26,2.53-.52,3.78-.8a30.71,30.71,0,0,1,3.07-.68,28.67,28.67,0,0,1,4.53-.5,2.05,2.05,0,0,0,1.61-.28c.1-.09.32,0,.49,0h7.57a3.75,3.75,0,0,1,.67.11,6.54,6.54,0,0,0,.73.19,9.27,9.27,0,0,0,1.49,0,18.67,18.67,0,0,1,4.42.5,2.39,2.39,0,0,0,1.68-.3,14.5,14.5,0,0,0,1.61-1.07,20.93,20.93,0,0,1,4.61-2.54,20.38,20.38,0,0,1,2.93-.85,18.93,18.93,0,0,1,4.44-.25,13,13,0,0,1,1.76.2c.46.05.93.07,1.39.13s1.17-.11,1.69.34c.14.12.45,0,.68.06.51.06,1.07-.09,1.49.35,0,0,.13,0,.19,0,1,.15,2,.26,3,.45,1.33.26,2.64.57,4,.86s2.77.61,4.15.94c.76.19,1.5.42,2.25.64.1,0,.19.08.28.09a23,23,0,0,1,3.66.9c1.71.42,3.36,1.06,5,1.61.9.3,1.8.6,2.68.93s1.88.77,2.82,1.17c.45.2.52.41.26.84s-.5.69-.75,1l-.51.73c.32,0,.54,0,.69-.05.73-.4,1.43-.86,2.16-1.27,1-.55,1.94-1.07,2.92-1.59s1.82-.93,2.72-1.4l3.23-1.67c1.7-.89,3.45-1.65,5.22-2.37.92-.38,1.89-.63,2.76-1.07s1.83-.62,2.7-1a11.51,11.51,0,0,1,2-.52c.53-.13,1.07-.24,1.59-.41a34.8,34.8,0,0,1,5-1,34.18,34.18,0,0,1,6.15-.4c.93,0,1.86,0,2.79,0a41.77,41.77,0,0,1,6.49.84c1.26.24,2.45.7,3.7,1a5.75,5.75,0,0,1,1.15.46,4.63,4.63,0,0,0,2.74.38c.39,0,.79,0,1.19-.06s.85.07,1.2-.29c.11-.11.38-.07.58-.08.66,0,1.33,0,2-.06.41,0,.84.08,1.22-.25.14-.12.44-.07.67-.07h14c.28,0,.57-.07.83.2s.43.1.66.11c.9,0,1.8,0,2.69.07.61,0,1.26-.16,1.79.31a.43.43,0,0,0,.2,0,31.38,31.38,0,0,1,4.94.43c.56.06,1.11.16,1.66.25.2,0,.39.1.58.11a80.87,80.87,0,0,1,8.62,1.35c.29,0,.59.06.89.11s.77.15,1.15.24c.13,0,.25.09.38.11a15.51,15.51,0,0,1,3,.5c1,.36,2,.25,2.95.61s1.9.27,2.8.56c1.28.41,2.63.48,3.92.84.92.25,1.88.36,2.82.55a13.32,13.32,0,0,1,2,.48c.81.32,1.73,0,2.45.62.08.07.26,0,.39.05.44.05.92-.07,1.29.33.06.08.25,0,.38.06a16.62,16.62,0,0,1,3.26.7c.73.19,1.49.27,2.23.42l3.69.76c.38.08.77.14,1.28.23a43.37,43.37,0,0,1-5.53,7.2,40.92,40.92,0,0,1-7,6,51.61,51.61,0,0,1-8.14,4.46l1,.67c1.44,1,2.75,2.11,3,4a5.52,5.52,0,0,1,.28,3.42,9.26,9.26,0,0,1-2,4.76,15.18,15.18,0,0,1-2.78,2.59c-.69.5-1.29,1.14-2,1.81a4.81,4.81,0,0,0,.75.11,15.13,15.13,0,0,1,5.4.65,5.43,5.43,0,0,1,3.47,2.76,5.29,5.29,0,0,1,.64,2.45c0,.16,0,.33,0,.5a11.31,11.31,0,0,1-1.25,5.22,18.18,18.18,0,0,1-4.93,6,29.91,29.91,0,0,1-7.56,4.57,20.5,20.5,0,0,1-2.42,1c-.9.26-1.76.64-2.65.91-1.48.44-3,.87-4.44,1.28-.79.22-1.6.37-2.4.58s-1.5.41-2.26.62c-.06,0-.12.08-.17.07a14.53,14.53,0,0,0-2.77.51,22.52,22.52,0,0,0-2.66.57c-.12,0-.24.11-.37.13l-4.57.83c-.94.17-1.89.32-2.84.47-.42.06-.85.11-1.27.18s-.83.18-1.26.23-1.11.11-1.67.18-.9.16-1.35.24a4.74,4.74,0,0,1-.49.1c-2.71.06-5.4.59-8.12.46a5.43,5.43,0,0,0-1.89.05,15.48,15.48,0,0,1-4.29.27c-1.46.05-2.93,0-4.39,0-.28,0-.57.08-.83-.19s-.44-.1-.67-.1l-2.79-.07a4.52,4.52,0,0,1-1.95-.28,2.47,2.47,0,0,0-.78-.07,3.76,3.76,0,0,1-1.75-.32,1.24,1.24,0,0,0-.48-.08,20,20,0,0,1-6.29-1.91,7.14,7.14,0,0,1-3.24-2.8,7.25,7.25,0,0,1-.93-2.69c0-.19-.07-.38-.12-.68a8.7,8.7,0,0,0-1.7.62c-.94.58-2.07.74-3,1.39-2.26.57-4.31,1.75-6.58,2.3-.91.59-2,.59-3,1.07a9.14,9.14,0,0,1-1.48.4c-1.5.45-3,.79-4.58,1.13a23.1,23.1,0,0,1-4.89.79c-1.54.62-3.23.15-4.79.69a2.58,2.58,0,0,1-.79,0l-5.38,0A14.37,14.37,0,0,1,344,288a7.92,7.92,0,0,0-1.39-.09,6.27,6.27,0,0,1-1.75-.28,15.25,15.25,0,0,0-1.95-.3c-1.1-.22-2.18-.53-3.28-.74a25.77,25.77,0,0,1-4-1.35,17.51,17.51,0,0,1-2.92-1.5,23.19,23.19,0,0,1-2.75-1.85,14.61,14.61,0,0,1-3.28-3.6c-.26-.42-.5-.84-.78-1.24-.08-.1-.28-.12-.43-.17a48.87,48.87,0,0,1-4.06,6.62,12.27,12.27,0,0,1-5.29,3.85A5.61,5.61,0,0,1,310,288c-.88.54-1.94.26-2.86.65a2.32,2.32,0,0,1-.88.08c-1.73,0-3.46,0-5.18.05a21.61,21.61,0,0,1-4.33-.5,19.23,19.23,0,0,1-2.24-.62,17.93,17.93,0,0,1-2.86-1.09,9.75,9.75,0,0,1-4.27-4.09,15.66,15.66,0,0,1-.52-1.55c-.66-1.77-.35-3.6-.38-5.4a3.87,3.87,0,0,1,.31-2,.34.34,0,0,0,0-.2,7,7,0,0,1,.5-2.69,31.54,31.54,0,0,1,.93-3.25c.63-1.62,1.08-3.31,1.62-5,.29-.89.59-1.79.91-2.67a16.32,16.32,0,0,0,.62-1.59c.32-1.27.88-2.45,1.32-3.67q.86-2.35,1.75-4.68c.16-.4.43-.76.62-1.14a3.3,3.3,0,0,0,.12-.77c-.44.35-.7.58-1,.78a15.55,15.55,0,0,0-3.39,3.71c-1.05,1.44-2.16,2.83-3.26,4.23-.85,1.07-1.71,2.13-2.61,3.16s-1.82,2-2.75,3c-1.11,1.16-2.21,2.32-3.36,3.43-1.63,1.57-3.33,3.06-5,4.57-1.41,1.25-3.05,2.19-4.38,3.51-.92.31-1.5,1.11-2.33,1.56s-1.57,1.06-2.36,1.58c-1.83,1.22-3.72,2.32-5.65,3.38a19.74,19.74,0,0,1-1.85,1c-.66.28-1.28.6-1.92.9-1.36.64-2.76,1.21-4.16,1.78-.5.21-1,.32-1.58.49-1,.34-2.07.7-3.12,1a36.68,36.68,0,0,1-3.73.87,23.36,23.36,0,0,1-6.13.45,13.46,13.46,0,0,1-5.07-1.17,5.89,5.89,0,0,1-3.19-3.09,4.34,4.34,0,0,1,.11-3.77,8.83,8.83,0,0,1,1.09-1.53,16,16,0,0,0,1.22-1.53,2.83,2.83,0,0,0,.23-2.76A14.1,14.1,0,0,0,229.7,271c-.32-.47-.64-.94-.92-1.44-.8-1.42-1.51-2.89-2.38-4.27A8.77,8.77,0,0,0,225,262.9c-.76-1.56-1.52-3.13-2.29-4.68-.42-.84-.73-1.72-1.14-2.56s-.55-1.74-.93-2.56c-.49-1-.77-2.16-1.17-3.22-.27-.7-.32-1.49-.63-2.15s-.2-1.55-.64-2.22a1.21,1.21,0,0,1-.08-.48c-.08-.54.1-1.13-.35-1.59-.06-.06,0-.19,0-.29-.08-1.23-.22-2.45-.22-3.67a40.72,40.72,0,0,1,.23-4.27c.08-.71.47-1.39.6-2.11a10.79,10.79,0,0,1,1-2.48,16.28,16.28,0,0,1,1.92-3.07,21.67,21.67,0,0,1,2.43-2.64,36.44,36.44,0,0,1,5.09-3.89c1.47-1,3-1.82,4.5-2.7a21.61,21.61,0,0,1,2.92-1.48c1.16-.45,2.25-1.08,3.39-1.58a22.24,22.24,0,0,1,3.45-1.35,5.93,5.93,0,0,0,.86-.38c1.86-.76,3.78-1.37,5.7-2a13.4,13.4,0,0,1,5.58-.55,4,4,0,0,1,1.79.75,5.51,5.51,0,0,1,1.95,2.92c.67,2.08.38,4.2.37,6.31-.49,1-.15,2.11-.67,3.06a.49.49,0,0,0-.05.29c.14.88-.51,1.61-.47,2.47-.57,1.14-.54,2.46-1.08,3.62-.17,1.91-1,3.69-1.11,5.63-.49.89-.21,2-.65,2.86a.73.73,0,0,0-.07.29c0,1.62-.57,3.19-.45,4.83a6.68,6.68,0,0,1,0,1C254.63,246,255,247,254.32,247.87Zm132.79,26a6.05,6.05,0,0,1-.11,1.8c-.11.51-.13,1.05-.2,1.57a8.12,8.12,0,0,0,.29,2.14,4.91,4.91,0,0,0,.92,2.34,7.56,7.56,0,0,0,4.39,2.78,7.82,7.82,0,0,0,2.72.47,1.11,1.11,0,0,1,.37.11,3.15,3.15,0,0,0,.71.2,29.27,29.27,0,0,1,4,.35,18.36,18.36,0,0,0,2.88.11c.33,0,.66,0,1,.07.89.08,1.77.23,2.66.25,1.9,0,3.79,0,5.68,0,.27,0,.54,0,.8,0,1.22-.1,2.43-.22,3.65-.31a11.79,11.79,0,0,0,1.89-.1,17.46,17.46,0,0,1,3.45-.33c.24,0,.55.07.68-.06.46-.4,1-.25,1.5-.31s.86-.05,1.29-.11,1-.18,1.45-.27l1.25-.26.88-.14c.36,0,.72-.07,1.08-.15,1.75-.34,3.5-.71,5.25-1.06a19.82,19.82,0,0,0,3.27-.71c.79-.3,1.62-.35,2.41-.62,1.17-.4,2.4-.64,3.57-1.06.15-.05.31-.12.46-.16,1.24-.37,2.5-.66,3.69-1.14.41-.17.86-.25,1.27-.46a21.26,21.26,0,0,1,2.25-1,40.57,40.57,0,0,0,6.39-3.2,22.06,22.06,0,0,0,3.38-2.48,8.41,8.41,0,0,0,3.22-5.42,3.85,3.85,0,0,0-2.87-4.52,12.58,12.58,0,0,0-5-.06,32.13,32.13,0,0,0-4.44.83,21.15,21.15,0,0,1-2.62.47c-.07,0-.15,0-.19.06-.35.42-.92.15-1.27.37a2.63,2.63,0,0,1-1.29.35,2.44,2.44,0,0,0-.39.05c-.94.27-1.86.59-2.81.81a24.69,24.69,0,0,1-4.25,1,2.86,2.86,0,0,0-.28.07c-.75.22-1.49.48-2.25.64-1,.2-1.94.32-2.92.47-.1,0-.23,0-.28.06-.33.38-.79.26-1.2.3a4,4,0,0,0-1.55.28,1.68,1.68,0,0,1-.68.08,8.14,8.14,0,0,0-2.35.33,2.09,2.09,0,0,1-.79.06,34.08,34.08,0,0,1-6.84-.29,21.64,21.64,0,0,1-4.27-1.27,4.2,4.2,0,0,1-2-1.66,1.68,1.68,0,0,1,0-1.69,7.11,7.11,0,0,1,4.57-3.43c.62-.2,1.3-.26,1.89-.48a22,22,0,0,1,3.4-.59,27.35,27.35,0,0,1,4.45-.3c1.83-.07,3.65-.1,5.48-.16,2.58-.08,5.17.05,7.75-.22,2.11-.22,4.23-.32,6.35-.48a4,4,0,0,0,.48-.09l3-.66a12.84,12.84,0,0,0,1.84-.51c.77-.3,1.5-.69,2.26-1a9,9,0,0,0,4.34-3.72,7.67,7.67,0,0,0,1.05-5.48,4.32,4.32,0,0,0-1.27-2.43,5.55,5.55,0,0,0-3.44-1.61c-.13,0-.3,0-.39,0-.53-.47-1.18-.31-1.78-.32-1.3,0-2.59,0-3.89,0-.2,0-.47,0-.58.06-.43.39-.93.24-1.41.29s-1.14-.09-1.56.14a3.49,3.49,0,0,1-1.31.29c-.23,0-.46,0-.69.1-.82.2-1.64.46-2.47.64-1.78.38-3.57.69-5.33,1.12a22,22,0,0,1-3.76.78.45.45,0,0,0-.19.05,3.34,3.34,0,0,1-1.65.28,5.5,5.5,0,0,0-1.78.09,8.73,8.73,0,0,1-3,.26c-.2,0-.47.06-.58,0-.4-.37-.87-.22-1.32-.26s-.73,0-1.09-.07c-.92-.16-1.74-.81-1.52-1.67a8.43,8.43,0,0,1,.63-1.67,14.44,14.44,0,0,1,2-2.76,5.14,5.14,0,0,1,2.51-1.76,12.78,12.78,0,0,1,3.16-.26c1,0,2,.14,3.07.22a1.94,1.94,0,0,1,.59,0,11.08,11.08,0,0,0,3.24.36,2.57,2.57,0,0,1,.69.07,8.86,8.86,0,0,0,2.56.27l2.7.06c.22,0,.53,0,.66.11s.55.19.83.19h6.78c.23,0,.53,0,.68-.07.37-.33.8-.23,1.21-.26a17,17,0,0,0,1.89-.12c.93-.18,1.85-.43,2.77-.67s2-.51,2.93-.87a31.82,31.82,0,0,0,4.34-2.06,27.77,27.77,0,0,0,4.71-3.29c1.76-1.53,3.36-3.25,5-4.91a1.45,1.45,0,0,0,.61-1.2c-.72-.16-1.42-.37-2.13-.46a14.54,14.54,0,0,0-2.93-.46.22.22,0,0,1-.18-.05c-.3-.37-.72-.24-1.1-.29s-.59-.07-.88-.13l-3-.65-.87-.15c-1.82-.35-3.63-.72-5.45-1.06a25.47,25.47,0,0,1-3.66-.71c-1-.35-2-.15-3-.61a11.45,11.45,0,0,0-2-.39c-.78-.22-1.62-.23-2.43-.42-1.05-.25-2.13-.33-3.2-.5a68.25,68.25,0,0,0-7-1,.59.59,0,0,1-.3,0,5,5,0,0,0-2.13-.34c-.33,0-.66-.1-1-.16s-.91-.15-1.37-.2a6.67,6.67,0,0,1-1.19-.08,14.26,14.26,0,0,0-3.74-.35c-.24,0-.55.05-.68-.07-.41-.36-.87-.24-1.31-.27-1.63-.08-3.25-.15-4.87-.24-.56,0-1.12-.13-1.68-.13q-3.63,0-7.28,0a8.22,8.22,0,0,0-1,.06l-2.55.3c-.23,0-.55,0-.68.09-.35.36-.79.24-1.19.32a1.68,1.68,0,0,0-.4,0,24.56,24.56,0,0,0-3.72,1.72,11.29,11.29,0,0,0-2.6,2.17,7.7,7.7,0,0,0-1.43,2.62,3.08,3.08,0,0,0,.3,2.83,6,6,0,0,0,2.12,1.93,15.1,15.1,0,0,0,4.22,1.61c.83.2,1.66.41,2.48.65.44.13.85.35,1.47.61-1.5.34-2.77.64-4,.91-.93.2-1.86.37-2.79.55a1.06,1.06,0,0,1-.19.06c-1,.21-2,.42-3,.61l-3.59.65a.83.83,0,0,0-.29.06c-.53.4-1.13.25-1.83.27a2.38,2.38,0,0,0,.26-.37c.53-1.28,1-2.59,1.61-3.82s1.23-2.73,1.81-4.11a42.48,42.48,0,0,0,1.51-4.59,9.84,9.84,0,0,0,.37-3.54,2,2,0,0,0-.7-1.47,6.81,6.81,0,0,0-1.47-1,11.27,11.27,0,0,0-4.42-1,42.33,42.33,0,0,0-6.66.13,51.66,51.66,0,0,0-8.46,1.57c-.63.18-1.28.29-1.92.44s-1.38.31-2,.53c-1,.31-1.89.7-2.83,1-1.76.64-3.55,1.18-5.25,1.95-1.14.51-2.31,1-3.43,1.54-1.57.8-3.16,1.57-4.69,2.44l-1.6.89c-1.36.77-2.77,1.46-4.05,2.35-1.06.74-2.17,1.4-3.21,2.17-1.4,1-2.86,2-4.27,3-1.16.83-2.29,1.7-3.43,2.56-1.84,1.39-3.65,2.8-5.37,4.33a3.17,3.17,0,0,1-.89.51,93.35,93.35,0,0,1,4.67-8.74c1.69-2.78,3.58-5.43,5.3-8.27-.36-.17-.61-.33-.89-.43-1.37-.45-2.74-.9-4.12-1.33a6.89,6.89,0,0,1-1.69-.47c-.44-.27-.93-.15-1.28-.37a2.91,2.91,0,0,0-1.39-.36c-.1,0-.22,0-.29-.05a6.64,6.64,0,0,0-2-.64,31.76,31.76,0,0,0-3.48-.77c-1.26-.25-2.54-.43-3.77-.78-.71-.2-1.44-.22-2.12-.44a4,4,0,0,0-1.43-.27c-.52,0-.91-.33-1.38-.36-1.12-.08-2.24-.26-3.35-.35a11.43,11.43,0,0,0-4.83.23,1,1,0,0,1-.49,0,4.68,4.68,0,0,0-2.13.59,15.9,15.9,0,0,0-4.58,2.93,8.87,8.87,0,0,1-1.64,1.1,3.73,3.73,0,0,1-2.78.23c-.42-.08-.83-.17-1.26-.24a3.13,3.13,0,0,1-.88-.09,5.4,5.4,0,0,0-2.25-.29c-.9,0-1.79,0-2.69-.06-.23,0-.54,0-.67-.09-.29-.29-.61-.21-.93-.21h-5.58c-.2,0-.47-.06-.58,0-.43.39-.94.23-1.41.27s-.87,0-1.3,0c-.63,0-1.26.05-1.88.11s-1.24.19-1.86.28l-1,.16c-.32.06-.64.16-1,.22-.81.16-1.64.25-2.43.47a60.34,60.34,0,0,0-6.43,2.1,18.54,18.54,0,0,0-4.08,2.23,5.27,5.27,0,0,0-2,2.87,12.66,12.66,0,0,0-.13,4.75,29.06,29.06,0,0,1,.3,5.35,7.29,7.29,0,0,1-.48,2.42c-.44,1-.9,2-1.4,2.93a38.93,38.93,0,0,1-3,4.9c-1,1.34-1.88,2.71-2.9,4a7.81,7.81,0,0,1-2.79,2.5,1.08,1.08,0,0,1-1.23-.12,2.74,2.74,0,0,1-1.09-2,25.06,25.06,0,0,1-.25-4c0-2.22.15-4.44.23-6.66,0-.16,0-.39.07-.47.35-.33.24-.74.27-1.11.05-.53-.1-1.16.13-1.57a4.26,4.26,0,0,0,.31-1.61c0-.26,0-.53.1-.79.2-.83.45-1.64.63-2.48.3-1.39.56-2.78.83-4.18.13-.68.23-1.36.39-2a16.94,16.94,0,0,0,.58-2.28,16.27,16.27,0,0,0,.48-3,.3.3,0,0,1,0-.19c.48-.49.28-1.12.35-1.69s.14-1.11.21-1.67a9.94,9.94,0,0,0,.13-1.08,9.18,9.18,0,0,0-.3-2.94,2.25,2.25,0,0,0-2.18-1.84,9.63,9.63,0,0,0-4.27.72c-1.43.61-2.9,1.11-4.28,1.84a26.87,26.87,0,0,1-2.74,1.22A33.53,33.53,0,0,0,236.2,221l-3.36,2a25.25,25.25,0,0,0-4.14,3,19.82,19.82,0,0,0-5.23,6.9,13.43,13.43,0,0,0-1.25,4.86,8.74,8.74,0,0,1-.14.87,11.19,11.19,0,0,0-.16,1.28,27.54,27.54,0,0,0,.64,5.79,26.82,26.82,0,0,0,.88,3.56c.38,1.17.86,2.32,1.29,3.48.24.65.6,1.26.85,1.89.39,1,.85,1.95,1.3,2.91.67,1.4,1.41,2.77,2.17,4.12a38.26,38.26,0,0,0,2.57,4.12,46.85,46.85,0,0,1,3.62,4.69c.78,1.36,1.58,2.68,1.38,4.34a1.29,1.29,0,0,1-.11.57,26,26,0,0,1-1.71,2.21,16.74,16.74,0,0,0-2.21,2.69,1.66,1.66,0,0,0,.86,2.4,12.36,12.36,0,0,0,2.6.58,25.27,25.27,0,0,0,6.14-.21,18.77,18.77,0,0,0,2.73-.49c1-.36,2.11-.65,3.15-1,1.35-.47,2.63-1.08,3.91-1.67,1.93-.9,3.83-1.85,5.68-2.91,1.64-.93,3.25-1.89,4.83-2.91,1.94-1.24,3.8-2.6,5.62-4s3.52-2.85,5.24-4.33c1.56-1.36,3.09-2.76,4.6-4.18.92-.86,1.73-1.84,2.66-2.68a48.55,48.55,0,0,0,4.07-4.29c.82-1,1.62-1.94,2.42-2.92.59-.71,1.21-1.41,1.74-2.16.92-1.3,1.93-2.51,2.79-3.85s2-2.71,3-4.06c1.22-1.63,2.43-3.26,3.67-4.88.1-.13.36-.15.53-.22.21.57.39,1.06.55,1.55a16.35,16.35,0,0,1,.62,3.6,21.28,21.28,0,0,1-.69,7.66c-.3,1-.61,2.1-1,3.13s-.8,2.06-1.18,3.1c-.3.8-.76,1.54-1,2.35-.38,1.2-1,2.31-1.38,3.49-.34,1-.74,1.91-1.07,2.87a49.72,49.72,0,0,0-1.55,4.8,14.44,14.44,0,0,0-.69,2.52.82.82,0,0,1-.07.39,6.4,6.4,0,0,0-.61,2.63,23.52,23.52,0,0,0-.05,4.28,4.89,4.89,0,0,0,1.21,2.89,7.09,7.09,0,0,0,2.19,1.63,13.22,13.22,0,0,0,5.3,1.4,23.45,23.45,0,0,0,7-.25c.59-.15,1.21-.21,1.81-.37a13.55,13.55,0,0,0,2.26-.73,10.43,10.43,0,0,0,2.95-1.84,23.5,23.5,0,0,0,3.89-4.66c.88-1.38,1.69-2.78,2.44-4.22.66-1.27,1.28-2.55,1.89-3.83.39-.84.75-1.69,1.08-2.54.19-.49.16-.5.78-.88,0,.19,0,.36,0,.52a19.16,19.16,0,0,0,.33,4.89,14.85,14.85,0,0,0,.91,2.83,12.57,12.57,0,0,0,2,3.21,15,15,0,0,0,3.59,3,32.51,32.51,0,0,0,3.62,1.86c1,.43,2,.69,3.06,1a41.46,41.46,0,0,0,7.86,1.57,48.52,48.52,0,0,0,5.66.24c1.65,0,3.31-.11,5-.17a7.6,7.6,0,0,0,2.55-.31,2.9,2.9,0,0,1,.89-.08,9.81,9.81,0,0,0,1.09-.08c1.72-.35,3.43-.71,5.13-1.11a16.7,16.7,0,0,0,2.29-.58c1.05-.41,2.18-.59,3.26-.95s2.31-.87,3.45-1.33c1.5-.6,3-1.2,4.45-1.93s2.84-1.39,4.26-2.1S385.61,274.67,387.11,273.88Zm35.37-10.35c.91.08,1.73.18,2.56.21a45.55,45.55,0,0,0,10.1-.56c1.4-.25,2.77-.65,4.15-1,.24-.06.49-.13.43-.43s-.34-.34-.62-.31l-1.39.14c-1.32.09-2.64.15-4,.25-2.22.17-4.42.37-6.64.54-1.32.1-2.64.17-4,.26a3.83,3.83,0,0,0-.59.1,1.52,1.52,0,0,0-.27.19Z"/><path class="cls-2" d="M371.59,234c-.41,1.37-.81,2.74-1.24,4.1s-.9,2.81-1.38,4.21-1,2.78-1.47,4.18-.87,2.79-1.31,4.18-.91,2.78-1.4,4.31c.46,0,.81,0,1.16,0,1.32-.1,2.64-.24,4-.34a29.33,29.33,0,0,0,3.76-.3c1.67-.37,3.37-.19,5-.4,1.32-.18,2.63-.27,3.95-.37a8.68,8.68,0,0,0,2-.39,8.54,8.54,0,0,0,2-.89,5,5,0,0,0,1.46-1.81,13.45,13.45,0,0,0,.62-1.45c.28-.66.57-1.31.84-2a8.22,8.22,0,0,0,.25-.9c.29-.09.54-.12.65.3s.29,1.13.48,1.68c.3.83.62,1.66.94,2.49a11.32,11.32,0,0,1,.61,3.3,4.22,4.22,0,0,1-1.08,3.38,9.12,9.12,0,0,1-1.77,1.39,33,33,0,0,1-3.07,1.58c-.47.22-1,.26-1.49.47-1.33.55-2.7,1-4.07,1.45-1.21.38-2.38.88-3.59,1.26s-2.27,1-3.43,1.45-2.19.73-3.27,1.12c-.76.28-1.49.64-2.25.9a8.21,8.21,0,0,1-2.2.71,3.46,3.46,0,0,0-1.2.36,12.47,12.47,0,0,1-3.29.65,26.53,26.53,0,0,1-4.45.27,17.07,17.07,0,0,1-4.21-.62,8.4,8.4,0,0,1-4-2.17,5.38,5.38,0,0,1-1.4-4.91,12.76,12.76,0,0,1,1.68-4.24c.4-.68.77-1.38,1.2-2a44.54,44.54,0,0,1,5.79-7c1.87-1.93,3.74-3.85,5.67-5.71,1.42-1.36,2.95-2.6,4.42-3.91.87-.77,1.7-1.58,2.56-2.36l2.32-2ZM359,259.2c.26-.94.5-1.79.74-2.63.64-2.3,1.27-4.59,1.93-6.88.1-.37.06-.57-.31-.64a1,1,0,0,0-.18.1,60.82,60.82,0,0,0-7.3,8.41,10.57,10.57,0,0,0-1.73,3.33A2.72,2.72,0,0,0,353,264a5.59,5.59,0,0,0,1.57.82,10.13,10.13,0,0,0,1.54.36,8.9,8.9,0,0,0,5.28-.29c.39-.16.82-.24,1.23-.37l15.43-5.17,2.91-1c.25-.08.54-.16.35-.63-2.21.17-4.44.35-6.67.51l-7.24.46-3.57.24-4.16.32C359.51,259.22,359.31,259.2,359,259.2Z"/></svg>