<?xml version="1.0" encoding="UTF-8"?>
<svg xmlns="http://www.w3.org/2000/svg" id="Layer_1" data-name="Layer 1" viewBox="0 0 700 500"><defs><style>.cls-1{fill:#e00644;}.cls-2,.cls-3{fill:#fff;}.cls-2{fill-rule:evenodd;}</style></defs><rect class="cls-1" width="700" height="500"/><path class="cls-2" d="M418.58,217.27a12.5,12.5,0,1,0,12.5,12.5A12.49,12.49,0,0,0,418.58,217.27Zm51-39c0-1.1-.66-1.28-1.62-1.28h-2.09v4.17h.88v-1.71h.78l.94,1.71h1l-1-1.76C469.14,179.36,469.54,179,469.54,178.28Zm-2.83.51v-1.12h1c.4,0,.92,0,.92.49s-.25.64-.71.63Zm2.83-.51c0-1.1-.66-1.28-1.62-1.28h-2.09v4.17h.88v-1.71h.78l.94,1.71h1l-1-1.76C469.14,179.36,469.54,179,469.54,178.28Zm-2.83.51v-1.12h1c.4,0,.92,0,.92.49s-.25.64-.71.63Zm.78-3.59a3.86,3.86,0,1,0,3.86,3.86A3.85,3.85,0,0,0,467.49,175.2Zm0,6.83a3,3,0,0,1,0-5.95,3,3,0,1,1,0,5.95Zm2.05-3.75c0-1.1-.66-1.28-1.62-1.28h-2.09v4.17h.88v-1.71h.78l.94,1.71h1l-1-1.76C469.14,179.36,469.54,179,469.54,178.28Zm-1.6.51h-1.23v-1.12h1c.4,0,.92,0,.92.49S468.4,178.8,467.94,178.79Zm1.6-.51c0-1.1-.66-1.28-1.62-1.28h-2.09v4.17h.88v-1.71h.78l.94,1.71h1l-1-1.76C469.14,179.36,469.54,179,469.54,178.28Zm-2.83.51v-1.12h1c.4,0,.92,0,.92.49s-.25.64-.71.63Zm2.83-.51c0-1.1-.66-1.28-1.62-1.28h-2.09v4.17h.88v-1.71h.78l.94,1.71h1l-1-1.76C469.14,179.36,469.54,179,469.54,178.28Zm-2.83.51v-1.12h1c.4,0,.92,0,.92.49s-.25.64-.71.63Zm.78-3.59a3.86,3.86,0,1,0,3.86,3.86A3.85,3.85,0,0,0,467.49,175.2Zm0,6.83a3,3,0,0,1,0-5.95,3,3,0,1,1,0,5.95Zm2.05-3.75c0-1.1-.66-1.28-1.62-1.28h-2.09v4.17h.88v-1.71h.78l.94,1.71h1l-1-1.76C469.14,179.36,469.54,179,469.54,178.28Zm-1.6.51h-1.23v-1.12h1c.4,0,.92,0,.92.49S468.4,178.8,467.94,178.79Zm-49.36,38.48a12.5,12.5,0,1,0,12.5,12.5A12.49,12.49,0,0,0,418.58,217.27Zm-163,81H241.06L230.28,322.1h10L242,318H254.9l1.87,4.08h9.78Zm-11.54,15.06,4.35-10.3h.1l4.46,10.3Zm20.58-15.06v5.52h9.2V322.1h9.58V303.84h9.68v-5.52Zm39.86,18.27V298.32h-9.58V322.1h24.59v-5.51Zm40.71-18.27H330.65L319.87,322.1h10l1.78-4.08h12.89l1.86,4.08h9.78Zm-11.55,15.06,4.36-10.3h.09l4.46,10.3Zm49.76-15.06.57,18.27h-.38l-10.3-18.27h-16.2V322.1h9.59l-.58-18.26h.39l10.15,18.26H393V298.32Zm11.19,0v5.52h9.2V322.1h9.58V303.84h9.68v-5.52Zm23.95-81a12.5,12.5,0,1,0,12.5,12.5A12.49,12.49,0,0,0,418.58,217.27Zm6.52,81V322.1h9.59V298.32Zm35,14.78v.7c0,2.79-1.91,3-5.9,3-5.74,0-6-1.36-6-4.91v-3.72c0-3.39.53-4.5,6-4.5,3.27,0,5.52.16,5.85,2.29v.91H470v-.91c-.2-7.14-4.8-7.81-14.67-7.81-10.54,0-16.91,1.14-16.91,9v6.15c0,8.68,7.14,9,16.91,9,4.17,0,8.15,0,11.4-1.75s3.31-4.15,3.31-6.76v-.69Zm9.41-134.82c0-1.1-.66-1.28-1.62-1.28h-2.09v4.17h.88v-1.71h.78l.94,1.71h1l-1-1.76C469.14,179.36,469.54,179,469.54,178.28Zm-2.83.51v-1.12h1c.4,0,.92,0,.92.49s-.25.64-.71.63Zm2.83-.51c0-1.1-.66-1.28-1.62-1.28h-2.09v4.17h.88v-1.71h.78l.94,1.71h1l-1-1.76C469.14,179.36,469.54,179,469.54,178.28Zm-2.83.51v-1.12h1c.4,0,.92,0,.92.49s-.25.64-.71.63Zm.78-3.59a3.86,3.86,0,1,0,3.86,3.86A3.85,3.85,0,0,0,467.49,175.2Zm0,6.83a3,3,0,0,1,0-5.95,3,3,0,1,1,0,5.95Zm2.05-3.75c0-1.1-.66-1.28-1.62-1.28h-2.09v4.17h.88v-1.71h.78l.94,1.71h1l-1-1.76C469.14,179.36,469.54,179,469.54,178.28Zm-1.6.51h-1.23v-1.12h1c.4,0,.92,0,.92.49S468.4,178.8,467.94,178.79Zm1.6-.51c0-1.1-.66-1.28-1.62-1.28h-2.09v4.17h.88v-1.71h.78l.94,1.71h1l-1-1.76C469.14,179.36,469.54,179,469.54,178.28Zm-2.83.51v-1.12h1c.4,0,.92,0,.92.49s-.25.64-.71.63Zm2.83-.51c0-1.1-.66-1.28-1.62-1.28h-2.09v4.17h.88v-1.71h.78l.94,1.71h1l-1-1.76C469.14,179.36,469.54,179,469.54,178.28Zm-2.83.51v-1.12h1c.4,0,.92,0,.92.49s-.25.64-.71.63Zm.78-3.59a3.86,3.86,0,1,0,3.86,3.86A3.85,3.85,0,0,0,467.49,175.2Zm0,6.83a3,3,0,0,1,0-5.95,3,3,0,1,1,0,5.95Zm2.05-3.75c0-1.1-.66-1.28-1.62-1.28h-2.09v4.17h.88v-1.71h.78l.94,1.71h1l-1-1.76C469.14,179.36,469.54,179,469.54,178.28Zm-1.6.51h-1.23v-1.12h1c.4,0,.92,0,.92.49S468.4,178.8,467.94,178.79Zm-49.36,38.48a12.5,12.5,0,1,0,12.5,12.5A12.49,12.49,0,0,0,418.58,217.27Zm41.55,95.83v.7c0,2.79-1.91,3-5.9,3-5.74,0-6-1.36-6-4.91v-3.72c0-3.39.53-4.5,6-4.5,3.27,0,5.52.16,5.85,2.29v.91H470v-.91c-.2-7.14-4.8-7.81-14.67-7.81-10.54,0-16.91,1.14-16.91,9v6.15c0,8.68,7.14,9,16.91,9,4.17,0,8.15,0,11.4-1.75s3.31-4.15,3.31-6.76v-.69Zm-35-14.78V322.1h9.59V298.32Zm-30.47,0v5.52h9.2V322.1h9.58V303.84h9.68v-5.52Zm-11.19,0,.57,18.27h-.38l-10.3-18.27h-16.2V322.1h9.59l-.58-18.26h.39l10.15,18.26H393V298.32Zm-38.21,0H330.65L319.87,322.1h10l1.78-4.08h12.89l1.86,4.08h9.78Zm-11.55,15.06,4.36-10.3h.09l4.46,10.3Zm-29.16,3.21V298.32h-9.58V322.1h24.59v-5.51Zm-39.86-18.27v5.52h9.2V322.1h9.58V303.84h9.68v-5.52Zm-9,0H241.06L230.28,322.1h10L242,318H254.9l1.87,4.08h9.78Zm-11.54,15.06,4.35-10.3h.1l4.46,10.3Zm11.54-15.06H241.06L230.28,322.1h10L242,318H254.9l1.87,4.08h9.78Zm-11.54,15.06,4.35-10.3h.1l4.46,10.3Zm20.58-15.06v5.52h9.2V322.1h9.58V303.84h9.68v-5.52Zm39.86,18.27V298.32h-9.58V322.1h24.59v-5.51Zm40.71-18.27H330.65L319.87,322.1h10l1.78-4.08h12.89l1.86,4.08h9.78Zm-11.55,15.06,4.36-10.3h.09l4.46,10.3Zm49.76-15.06.57,18.27h-.38l-10.3-18.27h-16.2V322.1h9.59l-.58-18.26h.39l10.15,18.26H393V298.32Zm11.19,0v5.52h9.2V322.1h9.58V303.84h9.68v-5.52Zm23.95-81a12.5,12.5,0,1,0,12.5,12.5A12.49,12.49,0,0,0,418.58,217.27Zm6.52,81V322.1h9.59V298.32Zm44.44-120c0-1.1-.66-1.28-1.62-1.28h-2.09v4.17h.88v-1.71h.78l.94,1.71h1l-1-1.76C469.14,179.36,469.54,179,469.54,178.28Zm-2.83.51v-1.12h1c.4,0,.92,0,.92.49s-.25.64-.71.63ZM460.13,313.1v.7c0,2.79-1.91,3-5.9,3-5.74,0-6-1.36-6-4.91v-3.72c0-3.39.53-4.5,6-4.5,3.27,0,5.52.16,5.85,2.29v.91H470v-.91c-.2-7.14-4.8-7.81-14.67-7.81-10.54,0-16.91,1.14-16.91,9v6.15c0,8.68,7.14,9,16.91,9,4.17,0,8.15,0,11.4-1.75s3.31-4.15,3.31-6.76v-.69Zm9.41-134.82c0-1.1-.66-1.28-1.62-1.28h-2.09v4.17h.88v-1.71h.78l.94,1.71h1l-1-1.76C469.14,179.36,469.54,179,469.54,178.28Zm-2.83.51v-1.12h1c.4,0,.92,0,.92.49s-.25.64-.71.63Zm.78-3.59a3.86,3.86,0,1,0,3.86,3.86A3.85,3.85,0,0,0,467.49,175.2Zm0,6.83a3,3,0,0,1,0-5.95,3,3,0,1,1,0,5.95Zm2.05-3.75c0-1.1-.66-1.28-1.62-1.28h-2.09v4.17h.88v-1.71h.78l.94,1.71h1l-1-1.76C469.14,179.36,469.54,179,469.54,178.28Zm-1.6.51h-1.23v-1.12h1c.4,0,.92,0,.92.49S468.4,178.8,467.94,178.79Zm-.45-3.59a3.86,3.86,0,1,0,3.86,3.86A3.85,3.85,0,0,0,467.49,175.2Zm0,6.83a3,3,0,0,1,0-5.95,3,3,0,1,1,0,5.95Zm2.05-3.75c0-1.1-.66-1.28-1.62-1.28h-2.09v4.17h.88v-1.71h.78l.94,1.71h1l-1-1.76C469.14,179.36,469.54,179,469.54,178.28Zm-1.6.51h-1.23v-1.12h1c.4,0,.92,0,.92.49S468.4,178.8,467.94,178.79Zm-49.36,38.48a12.5,12.5,0,1,0,12.5,12.5A12.49,12.49,0,0,0,418.58,217.27Zm41.55,95.83v.7c0,2.79-1.91,3-5.9,3-5.74,0-6-1.36-6-4.91v-3.72c0-3.39.53-4.5,6-4.5,3.27,0,5.52.16,5.85,2.29v.91H470v-.91c-.2-7.14-4.8-7.81-14.67-7.81-10.54,0-16.91,1.14-16.91,9v6.15c0,8.68,7.14,9,16.91,9,4.17,0,8.15,0,11.4-1.75s3.31-4.15,3.31-6.76v-.69Zm-35,9h9.59V298.32H425.1Zm-30.47-18.26h9.2V322.1h9.58V303.84h9.68v-5.52H394.63ZM384,316.59h-.38l-10.3-18.27h-16.2V322.1h9.59l-.58-18.26h.39l10.15,18.26H393V298.32h-9.58Zm-53.36-18.27L319.87,322.1h10l1.78-4.08h12.89l1.86,4.08h9.78l-10.92-23.78Zm3,15.06,4.36-10.3h.09l4.46,10.3Zm-29.16-15.06h-9.58V322.1h24.59v-5.51h-15Zm-39.86,5.52h9.2V322.1h9.58V303.84h9.68v-5.52H264.66Zm-23.6-5.52L230.28,322.1h10L242,318H254.9l1.87,4.08h9.78l-10.93-23.78Zm3,15.06,4.35-10.3h.1l4.46,10.3ZM217.5,165.44V334.56h265V165.44Zm113.29,7.69v72.42H285.74l42.54-72.42Zm0,103.57v8.9H262.22l5.23-8.9ZM226,173.13h63.87L226,285.19ZM474,326.87H226V293.29H474Zm0-41.27H429.74a55.9,55.9,0,0,0,13.84-4.68,36,36,0,0,0-19-66.47,35.19,35.19,0,0,0-6,.49A14.84,14.84,0,0,1,432,223.49a36.2,36.2,0,0,1-54.77,45.44,57,57,0,0,0,30.17,16.67H361.94V235.48a56.53,56.53,0,0,0,5.48,19.3,36,36,0,0,0,66.48-19,35.22,35.22,0,0,0-.49-6,14.83,14.83,0,0,1-8.56,13.42,36.19,36.19,0,0,1-45.43-54.76A56.74,56.74,0,0,0,361.94,224v-50.9h50.93a56.53,56.53,0,0,0-19.3,5.48,36,36,0,0,0,19,66.49,36.44,36.44,0,0,0,6-.5A14.79,14.79,0,0,1,405.14,236a36.19,36.19,0,0,1,54.76-45.43,56.79,56.79,0,0,0-35.58-17.48H474V216.7a56.61,56.61,0,0,0-4.26-11.93,36,36,0,0,0-66.49,19,37.33,37.33,0,0,0,.49,6,14.84,14.84,0,0,1,8.57-13.42,36.19,36.19,0,0,1,45.43,54.76A56.9,56.9,0,0,0,474,242.81Zm-6.52-102.69a3.86,3.86,0,1,0-3.85-3.85A3.85,3.85,0,0,0,467.49,182.91Zm0-6.83a3,3,0,1,1,0,5.95,3,3,0,0,1,0-5.95ZM455.29,322.3c4.17,0,8.15,0,11.4-1.75s3.31-4.15,3.31-6.76v-.69h-9.87v.7c0,2.79-1.91,3-5.9,3-5.74,0-6-1.36-6-4.91v-3.72c0-3.39.53-4.5,6-4.5,3.27,0,5.52.16,5.85,2.29v.91H470v-.91c-.2-7.14-4.8-7.81-14.67-7.81-10.54,0-16.91,1.14-16.91,9v6.15C438.38,322,445.52,322.3,455.29,322.3Zm11.42-142.84h.78l.94,1.71h1l-1-1.76c.74,0,1.14-.37,1.14-1.13,0-1.1-.66-1.28-1.62-1.28h-2.09v4.17h.88Zm0-1.79h1c.4,0,.92,0,.92.49s-.25.64-.71.63h-1.23Zm-32,120.65H425.1V322.1h9.59Zm-28.61-68.55a12.5,12.5,0,1,0,12.5-12.5A12.49,12.49,0,0,0,406.08,229.77Zm-2.25,92.33h9.58V303.84h9.68v-5.52H394.63v5.52h9.2Zm-37.69-18.26h.39l10.15,18.26H393V298.32h-9.58l.57,18.27h-.38l-10.3-18.27h-16.2V322.1h9.59ZM331.62,318h12.89l1.86,4.08h9.78l-10.92-23.78H330.65L319.87,322.1h10ZM338,303.08h.09l4.46,10.3h-8.91Zm-18.51,13.51h-15V298.32h-9.58V322.1h24.59Zm-45.67,5.51h9.58V303.84h9.68v-5.52H264.66v5.52h9.2ZM242,318H254.9l1.87,4.08h9.78l-10.93-23.78H241.06L230.28,322.1h10Zm6.41-14.94h.1l4.46,10.3h-8.91Zm7.19-4.76H241.06L230.28,322.1h10L242,318H254.9l1.87,4.08h9.78Zm-11.54,15.06,4.35-10.3h.1l4.46,10.3Zm20.58-15.06v5.52h9.2V322.1h9.58V303.84h9.68v-5.52Zm39.86,18.27V298.32h-9.58V322.1h24.59v-5.51Zm40.71-18.27H330.65L319.87,322.1h10l1.78-4.08h12.89l1.86,4.08h9.78Zm-11.55,15.06,4.36-10.3h.09l4.46,10.3Zm49.76-15.06.57,18.27h-.38l-10.3-18.27h-16.2V322.1h9.59l-.58-18.26h.39l10.15,18.26H393V298.32Zm11.19,0v5.52h9.2V322.1h9.58V303.84h9.68v-5.52Zm30.47,0V322.1h9.59V298.32Zm35,14.78v.7c0,2.79-1.91,3-5.9,3-5.74,0-6-1.36-6-4.91v-3.72c0-3.39.53-4.5,6-4.5,3.27,0,5.52.16,5.85,2.29v.91H470v-.91c-.2-7.14-4.8-7.81-14.67-7.81-10.54,0-16.91,1.14-16.91,9v6.15c0,8.68,7.14,9,16.91,9,4.17,0,8.15,0,11.4-1.75s3.31-4.15,3.31-6.76v-.69Zm-41.55-95.83a12.5,12.5,0,1,0,12.5,12.5A12.49,12.49,0,0,0,418.58,217.27Zm51-39c0-1.1-.66-1.28-1.62-1.28h-2.09v4.17h.88v-1.71h.78l.94,1.71h1l-1-1.76C469.14,179.36,469.54,179,469.54,178.28Zm-2.83.51v-1.12h1c.4,0,.92,0,.92.49s-.25.64-.71.63Zm2.83-.51c0-1.1-.66-1.28-1.62-1.28h-2.09v4.17h.88v-1.71h.78l.94,1.71h1l-1-1.76C469.14,179.36,469.54,179,469.54,178.28Zm-2.83.51v-1.12h1c.4,0,.92,0,.92.49s-.25.64-.71.63Zm.78-3.59a3.86,3.86,0,1,0,3.86,3.86A3.85,3.85,0,0,0,467.49,175.2Zm0,6.83a3,3,0,0,1,0-5.95,3,3,0,1,1,0,5.95Zm2.05-3.75c0-1.1-.66-1.28-1.62-1.28h-2.09v4.17h.88v-1.71h.78l.94,1.71h1l-1-1.76C469.14,179.36,469.54,179,469.54,178.28Zm-1.6.51h-1.23v-1.12h1c.4,0,.92,0,.92.49S468.4,178.8,467.94,178.79Zm1.6-.51c0-1.1-.66-1.28-1.62-1.28h-2.09v4.17h.88v-1.71h.78l.94,1.71h1l-1-1.76C469.14,179.36,469.54,179,469.54,178.28Zm-2.83.51v-1.12h1c.4,0,.92,0,.92.49s-.25.64-.71.63Zm2.83-.51c0-1.1-.66-1.28-1.62-1.28h-2.09v4.17h.88v-1.71h.78l.94,1.71h1l-1-1.76C469.14,179.36,469.54,179,469.54,178.28Zm-2.83.51v-1.12h1c.4,0,.92,0,.92.49s-.25.64-.71.63Zm.78-3.59a3.86,3.86,0,1,0,3.86,3.86A3.85,3.85,0,0,0,467.49,175.2Zm0,6.83a3,3,0,0,1,0-5.95,3,3,0,1,1,0,5.95Zm2.05-3.75c0-1.1-.66-1.28-1.62-1.28h-2.09v4.17h.88v-1.71h.78l.94,1.71h1l-1-1.76C469.14,179.36,469.54,179,469.54,178.28Zm-1.6.51h-1.23v-1.12h1c.4,0,.92,0,.92.49S468.4,178.8,467.94,178.79ZM460.13,313.1v.7c0,2.79-1.91,3-5.9,3-5.74,0-6-1.36-6-4.91v-3.72c0-3.39.53-4.5,6-4.5,3.27,0,5.52.16,5.85,2.29v.91H470v-.91c-.2-7.14-4.8-7.81-14.67-7.81-10.54,0-16.91,1.14-16.91,9v6.15c0,8.68,7.14,9,16.91,9,4.17,0,8.15,0,11.4-1.75s3.31-4.15,3.31-6.76v-.69Zm-35-14.78V322.1h9.59V298.32Zm-6.52-81a12.5,12.5,0,1,0,12.5,12.5A12.49,12.49,0,0,0,418.58,217.27Zm-23.95,81v5.52h9.2V322.1h9.58V303.84h9.68v-5.52Zm-11.19,0,.57,18.27h-.38l-10.3-18.27h-16.2V322.1h9.59l-.58-18.26h.39l10.15,18.26H393V298.32Zm-38.21,0H330.65L319.87,322.1h10l1.78-4.08h12.89l1.86,4.08h9.78Zm-11.55,15.06,4.36-10.3h.09l4.46,10.3Zm-29.16,3.21V298.32h-9.58V322.1h24.59v-5.51Zm-39.86-18.27v5.52h9.2V322.1h9.58V303.84h9.68v-5.52Zm-9,0H241.06L230.28,322.1h10L242,318H254.9l1.87,4.08h9.78Zm-11.54,15.06,4.35-10.3h.1l4.46,10.3Zm11.54-15.06H241.06L230.28,322.1h10L242,318H254.9l1.87,4.08h9.78Zm-11.54,15.06,4.35-10.3h.1l4.46,10.3Zm20.58-15.06v5.52h9.2V322.1h9.58V303.84h9.68v-5.52Zm39.86,18.27V298.32h-9.58V322.1h24.59v-5.51Zm40.71-18.27H330.65L319.87,322.1h10l1.78-4.08h12.89l1.86,4.08h9.78Zm-11.55,15.06,4.36-10.3h.09l4.46,10.3Zm49.76-15.06.57,18.27h-.38l-10.3-18.27h-16.2V322.1h9.59l-.58-18.26h.39l10.15,18.26H393V298.32Zm11.19,0v5.52h9.2V322.1h9.58V303.84h9.68v-5.52Zm30.47,0V322.1h9.59V298.32Zm35,14.78v.7c0,2.79-1.91,3-5.9,3-5.74,0-6-1.36-6-4.91v-3.72c0-3.39.53-4.5,6-4.5,3.27,0,5.52.16,5.85,2.29v.91H470v-.91c-.2-7.14-4.8-7.81-14.67-7.81-10.54,0-16.91,1.14-16.91,9v6.15c0,8.68,7.14,9,16.91,9,4.17,0,8.15,0,11.4-1.75s3.31-4.15,3.31-6.76v-.69Zm-41.55-95.83a12.5,12.5,0,1,0,12.5,12.5A12.49,12.49,0,0,0,418.58,217.27Zm51-39c0-1.1-.66-1.28-1.62-1.28h-2.09v4.17h.88v-1.71h.78l.94,1.71h1l-1-1.76C469.14,179.36,469.54,179,469.54,178.28Zm-2.83.51v-1.12h1c.4,0,.92,0,.92.49s-.25.64-.71.63Zm2.83-.51c0-1.1-.66-1.28-1.62-1.28h-2.09v4.17h.88v-1.71h.78l.94,1.71h1l-1-1.76C469.14,179.36,469.54,179,469.54,178.28Zm-2.83.51v-1.12h1c.4,0,.92,0,.92.49s-.25.64-.71.63Zm.78-3.59a3.86,3.86,0,1,0,3.86,3.86A3.85,3.85,0,0,0,467.49,175.2Zm0,6.83a3,3,0,0,1,0-5.95,3,3,0,1,1,0,5.95Zm2.05-3.75c0-1.1-.66-1.28-1.62-1.28h-2.09v4.17h.88v-1.71h.78l.94,1.71h1l-1-1.76C469.14,179.36,469.54,179,469.54,178.28Zm-1.6.51h-1.23v-1.12h1c.4,0,.92,0,.92.49S468.4,178.8,467.94,178.79Zm1.6-.51c0-1.1-.66-1.28-1.62-1.28h-2.09v4.17h.88v-1.71h.78l.94,1.71h1l-1-1.76C469.14,179.36,469.54,179,469.54,178.28Zm-2.83.51v-1.12h1c.4,0,.92,0,.92.49s-.25.64-.71.63Zm2.83-.51c0-1.1-.66-1.28-1.62-1.28h-2.09v4.17h.88v-1.71h.78l.94,1.71h1l-1-1.76C469.14,179.36,469.54,179,469.54,178.28Zm-2.83.51v-1.12h1c.4,0,.92,0,.92.49s-.25.64-.71.63Zm.78-3.59a3.86,3.86,0,1,0,3.86,3.86A3.85,3.85,0,0,0,467.49,175.2Zm0,6.83a3,3,0,0,1,0-5.95,3,3,0,1,1,0,5.95Zm2.05-3.75c0-1.1-.66-1.28-1.62-1.28h-2.09v4.17h.88v-1.71h.78l.94,1.71h1l-1-1.76C469.14,179.36,469.54,179,469.54,178.28Zm-1.6.51h-1.23v-1.12h1c.4,0,.92,0,.92.49S468.4,178.8,467.94,178.79ZM460.13,313.1v.7c0,2.79-1.91,3-5.9,3-5.74,0-6-1.36-6-4.91v-3.72c0-3.39.53-4.5,6-4.5,3.27,0,5.52.16,5.85,2.29v.91H470v-.91c-.2-7.14-4.8-7.81-14.67-7.81-10.54,0-16.91,1.14-16.91,9v6.15c0,8.68,7.14,9,16.91,9,4.17,0,8.15,0,11.4-1.75s3.31-4.15,3.31-6.76v-.69Zm-35-14.78V322.1h9.59V298.32Zm-6.52-81a12.5,12.5,0,1,0,12.5,12.5A12.49,12.49,0,0,0,418.58,217.27Zm-23.95,81v5.52h9.2V322.1h9.58V303.84h9.68v-5.52Zm-11.19,0,.57,18.27h-.38l-10.3-18.27h-16.2V322.1h9.59l-.58-18.26h.39l10.15,18.26H393V298.32Zm-38.21,0H330.65L319.87,322.1h10l1.78-4.08h12.89l1.86,4.08h9.78Zm-11.55,15.06,4.36-10.3h.09l4.46,10.3Zm-29.16,3.21V298.32h-9.58V322.1h24.59v-5.51Zm-39.86-18.27v5.52h9.2V322.1h9.58V303.84h9.68v-5.52Zm-9,0H241.06L230.28,322.1h10L242,318H254.9l1.87,4.08h9.78Zm-11.54,15.06,4.35-10.3h.1l4.46,10.3Z"/><path class="cls-2" d="M431.08,229.77a12.5,12.5,0,1,1-12.5-12.5A12.49,12.49,0,0,1,431.08,229.77Z"/><path class="cls-2" d="M469.54,178.28c0-1.1-.66-1.28-1.62-1.28h-2.09v4.17h.88v-1.71h.78l.94,1.71h1l-1-1.76C469.14,179.36,469.54,179,469.54,178.28Zm-2.83.51v-1.12h1c.4,0,.92,0,.92.49s-.25.64-.71.63Z"/><path class="cls-2" d="M467.49,175.2a3.86,3.86,0,1,0,3.86,3.86A3.85,3.85,0,0,0,467.49,175.2Zm0,6.83a3,3,0,0,1,0-5.95,3,3,0,1,1,0,5.95Z"/><path class="cls-2" d="M474,216.73h0v0S474,216.72,474,216.73Z"/><path class="cls-2" d="M255.62,298.32H241.06L230.28,322.1h10L242,318H254.9l1.87,4.08h9.78Zm-11.54,15.06,4.35-10.3h.1l4.46,10.3Z"/><polygon class="cls-2" points="264.66 298.32 293.12 298.32 293.12 303.84 283.44 303.84 283.44 322.1 273.86 322.1 273.86 303.84 264.66 303.84 264.66 298.32"/><polygon class="cls-2" points="304.52 316.59 319.53 316.59 319.53 322.1 294.94 322.1 294.94 298.32 304.52 298.32 304.52 316.59"/><path class="cls-2" d="M345.23,298.32H330.65L319.87,322.1h10l1.78-4.08h12.89l1.86,4.08h9.78Zm-11.55,15.06,4.36-10.3h.09l4.46,10.3Z"/><polygon class="cls-2" points="383.44 298.32 393.02 298.32 393.02 322.1 376.68 322.1 366.53 303.84 366.14 303.84 366.72 322.1 357.13 322.1 357.13 298.32 373.33 298.32 383.63 316.59 384.01 316.59 383.44 298.32"/><polygon class="cls-2" points="394.63 298.32 423.09 298.32 423.09 303.84 413.41 303.84 413.41 322.1 403.83 322.1 403.83 303.84 394.63 303.84 394.63 298.32"/><rect class="cls-3" x="425.1" y="298.32" width="9.58" height="23.78"/><path class="cls-2" d="M470,313.1v.69c0,2.61,0,4.95-3.31,6.76s-7.23,1.75-11.4,1.75c-9.77,0-16.91-.33-16.91-9v-6.15c0-7.87,6.37-9,16.91-9,9.87,0,14.47.67,14.67,7.81v.91h-9.88v-.91c-.33-2.13-2.58-2.29-5.85-2.29-5.45,0-6,1.11-6,4.5v3.72c0,3.55.24,4.91,6,4.91,4,0,5.9-.19,5.9-3v-.7Z"/><path class="cls-2" d="M431.08,229.77a12.5,12.5,0,1,1-12.5-12.5A12.49,12.49,0,0,1,431.08,229.77Z"/><path class="cls-2" d="M255.62,298.32H241.06L230.28,322.1h10L242,318H254.9l1.87,4.08h9.78Zm-11.54,15.06,4.35-10.3h.1l4.46,10.3Z"/><polygon class="cls-2" points="293.12 298.32 293.12 303.84 283.44 303.84 283.44 322.1 273.86 322.1 273.86 303.84 264.66 303.84 264.66 298.32 293.12 298.32"/><polygon class="cls-2" points="319.53 316.59 319.53 322.1 294.94 322.1 294.94 298.32 304.52 298.32 304.52 316.59 319.53 316.59"/><path class="cls-2" d="M345.23,298.32H330.65L319.87,322.1h10l1.78-4.08h12.89l1.86,4.08h9.78Zm-11.55,15.06,4.36-10.3h.09l4.46,10.3Z"/><polygon class="cls-2" points="393.02 298.32 393.02 322.1 376.68 322.1 366.53 303.84 366.14 303.84 366.72 322.1 357.13 322.1 357.13 298.32 373.33 298.32 383.63 316.59 384.01 316.59 383.44 298.32 393.02 298.32"/><polygon class="cls-2" points="423.09 298.32 423.09 303.84 413.41 303.84 413.41 322.1 403.83 322.1 403.83 303.84 394.63 303.84 394.63 298.32 423.09 298.32"/><rect class="cls-3" x="425.1" y="298.32" width="9.58" height="23.78"/><path class="cls-2" d="M470,313.1v.69c0,2.61,0,4.95-3.31,6.76s-7.23,1.75-11.4,1.75c-9.77,0-16.91-.33-16.91-9v-6.15c0-7.87,6.37-9,16.91-9,9.87,0,14.47.67,14.67,7.81v.91h-9.88v-.91c-.33-2.13-2.58-2.29-5.85-2.29-5.45,0-6,1.11-6,4.5v3.72c0,3.55.24,4.91,6,4.91,4,0,5.9-.19,5.9-3v-.7Z"/><path class="cls-2" d="M469.54,178.28c0-1.1-.66-1.28-1.62-1.28h-2.09v4.17h.88v-1.71h.78l.94,1.71h1l-1-1.76C469.14,179.36,469.54,179,469.54,178.28Zm-2.83.51v-1.12h1c.4,0,.92,0,.92.49s-.25.64-.71.63Z"/><path class="cls-2" d="M467.49,175.2a3.86,3.86,0,1,0,3.86,3.86A3.85,3.85,0,0,0,467.49,175.2Zm0,6.83a3,3,0,0,1,0-5.95,3,3,0,1,1,0,5.95Z"/><path class="cls-2" d="M469.54,178.28c0-1.1-.66-1.28-1.62-1.28h-2.09v4.17h.88v-1.71h.78l.94,1.71h1l-1-1.76C469.14,179.36,469.54,179,469.54,178.28Zm-2.83.51v-1.12h1c.4,0,.92,0,.92.49s-.25.64-.71.63Z"/><path class="cls-2" d="M469.54,178.28c0-1.1-.66-1.28-1.62-1.28h-2.09v4.17h.88v-1.71h.78l.94,1.71h1l-1-1.76C469.14,179.36,469.54,179,469.54,178.28Zm-2.83.51v-1.12h1c.4,0,.92,0,.92.49s-.25.64-.71.63Z"/></svg>